<svg width="120" height="120" viewBox="0 0 120 120" fill="none" xmlns="http://www.w3.org/2000/svg">
<g opacity="0.2">
<path d="M60 75C68.2843 75 75 68.2843 75 60C75 51.7157 68.2843 45 60 45C51.7157 45 45 51.7157 45 60C45 68.2843 51.7157 75 60 75Z" fill="#333333"/>
<path d="M65 20.345V10H55V20.345C46.2008 21.4668 38.0233 25.4787 31.751 31.751C25.4787 38.0233 21.4668 46.2008 20.345 55H10V65H20.345C21.4659 73.7995 25.4776 81.9775 31.75 88.25C38.0225 94.5224 46.2005 98.5341 55 99.655V110H65V99.655C73.7995 98.5341 81.9775 94.5224 88.25 88.25C94.5224 81.9775 98.5341 73.7995 99.655 65H110V55H99.655C98.5332 46.2008 94.5213 38.0233 88.249 31.751C81.9767 25.4787 73.7992 21.4668 65 20.345ZM60 90C43.455 90 30 76.545 30 60C30 43.455 43.455 30 60 30C76.545 30 90 43.455 90 60C90 76.545 76.545 90 60 90Z" fill="#333333"/>
</g>
</svg>
