<svg width="131" height="18" viewBox="0 0 131 18" fill="none" xmlns="http://www.w3.org/2000/svg">
<path d="M14.768 1.22C16.244 1.22 17.396 1.652 18.224 2.516C19.052 3.368 19.466 4.598 19.466 6.206V14H17.126V6.296C17.126 5.3 16.862 4.55 16.334 4.046C15.818 3.53 15.14 3.272 14.3 3.272C13.364 3.272 12.614 3.536 12.05 4.064C11.498 4.592 11.222 5.402 11.222 6.494V14H8.882V6.296C8.882 5.288 8.636 4.532 8.144 4.028C7.664 3.524 7.004 3.272 6.164 3.272C5.216 3.272 4.454 3.542 3.878 4.082C3.314 4.61 3.032 5.414 3.032 6.494V14H0.692V1.4H2.96V3.056C3.344 2.468 3.866 2.018 4.526 1.706C5.186 1.382 5.948 1.22 6.812 1.22C7.7 1.22 8.474 1.388 9.134 1.724C9.794 2.06 10.292 2.534 10.628 3.146C11.048 2.534 11.618 2.06 12.338 1.724C13.07 1.388 13.88 1.22 14.768 1.22ZM31.825 4.388V12.542C31.825 15.926 30.163 17.618 26.839 17.618C25.963 17.618 25.123 17.498 24.319 17.258C23.527 17.03 22.873 16.694 22.357 16.25L23.365 14.558C23.773 14.906 24.271 15.182 24.859 15.386C25.447 15.59 26.065 15.692 26.713 15.692C27.697 15.692 28.417 15.452 28.873 14.972C29.341 14.504 29.575 13.778 29.575 12.794V12.344C29.215 12.74 28.777 13.046 28.261 13.262C27.745 13.466 27.187 13.568 26.587 13.568C25.303 13.568 24.289 13.214 23.545 12.506C22.813 11.798 22.447 10.736 22.447 9.32V4.388H24.697V9.032C24.697 9.884 24.889 10.526 25.273 10.958C25.669 11.378 26.227 11.588 26.947 11.588C27.751 11.588 28.387 11.342 28.855 10.85C29.335 10.358 29.575 9.644 29.575 8.708V4.388H31.825ZM38.682 14.18C37.71 14.18 36.768 14.042 35.856 13.766C34.956 13.49 34.242 13.124 33.714 12.668L34.524 10.85C35.04 11.258 35.67 11.594 36.414 11.858C37.17 12.11 37.926 12.236 38.682 12.236C39.618 12.236 40.314 12.086 40.77 11.786C41.238 11.486 41.472 11.09 41.472 10.598C41.472 10.238 41.34 9.944 41.076 9.716C40.824 9.476 40.5 9.29 40.104 9.158C39.708 9.026 39.168 8.876 38.484 8.708C37.524 8.48 36.744 8.252 36.144 8.024C35.556 7.796 35.046 7.442 34.614 6.962C34.194 6.47 33.984 5.81 33.984 4.982C33.984 4.286 34.17 3.656 34.542 3.092C34.926 2.516 35.496 2.06 36.252 1.724C37.02 1.388 37.956 1.22 39.06 1.22C39.828 1.22 40.584 1.316 41.328 1.508C42.072 1.7 42.714 1.976 43.254 2.336L42.516 4.154C41.964 3.83 41.388 3.584 40.788 3.416C40.188 3.248 39.606 3.164 39.042 3.164C38.118 3.164 37.428 3.32 36.972 3.632C36.528 3.944 36.306 4.358 36.306 4.874C36.306 5.234 36.432 5.528 36.684 5.756C36.948 5.984 37.278 6.164 37.674 6.296C38.07 6.428 38.61 6.578 39.294 6.746C40.23 6.962 40.998 7.19 41.598 7.43C42.198 7.658 42.708 8.012 43.128 8.492C43.56 8.972 43.776 9.62 43.776 10.436C43.776 11.132 43.584 11.762 43.2 12.326C42.828 12.89 42.258 13.34 41.49 13.676C40.722 14.012 39.786 14.18 38.682 14.18ZM51.2803 13.478C51.0163 13.694 50.6923 13.856 50.3083 13.964C49.9363 14.072 49.5403 14.126 49.1203 14.126C48.0643 14.126 47.2483 13.85 46.6723 13.298C46.0963 12.746 45.8083 11.942 45.8083 10.886V2.264H48.0583V4.46H50.6323V6.26H48.0583V10.832C48.0583 11.3 48.1723 11.66 48.4003 11.912C48.6403 12.152 48.9703 12.272 49.3903 12.272C49.8943 12.272 50.3143 12.14 50.6503 11.876L51.2803 13.478ZM62.4461 4.388V14H60.3041V12.776C59.9441 13.208 59.4941 13.544 58.9541 13.784C58.4141 14.012 57.8321 14.126 57.2081 14.126C55.9241 14.126 54.9101 13.772 54.1661 13.064C53.4341 12.344 53.0681 11.282 53.0681 9.878V4.388H55.3181V9.572C55.3181 10.436 55.5101 11.084 55.8941 11.516C56.2901 11.936 56.8481 12.146 57.5681 12.146C58.3721 12.146 59.0081 11.9 59.4761 11.408C59.9561 10.904 60.1961 10.184 60.1961 9.248V4.388H62.4461ZM74.806 0.643999V14H72.646V12.758C72.274 13.214 71.812 13.556 71.26 13.784C70.72 14.012 70.12 14.126 69.46 14.126C68.536 14.126 67.702 13.922 66.958 13.514C66.226 13.106 65.65 12.53 65.23 11.786C64.81 11.03 64.6 10.166 64.6 9.194C64.6 8.222 64.81 7.364 65.23 6.62C65.65 5.876 66.226 5.3 66.958 4.892C67.702 4.484 68.536 4.28 69.46 4.28C70.096 4.28 70.678 4.388 71.206 4.604C71.734 4.82 72.184 5.144 72.556 5.576V0.643999H74.806ZM69.73 12.2C70.27 12.2 70.756 12.08 71.188 11.84C71.62 11.588 71.962 11.234 72.214 10.778C72.466 10.322 72.592 9.794 72.592 9.194C72.592 8.594 72.466 8.066 72.214 7.61C71.962 7.154 71.62 6.806 71.188 6.566C70.756 6.314 70.27 6.188 69.73 6.188C69.19 6.188 68.704 6.314 68.272 6.566C67.84 6.806 67.498 7.154 67.246 7.61C66.994 8.066 66.868 8.594 66.868 9.194C66.868 9.794 66.994 10.322 67.246 10.778C67.498 11.234 67.84 11.588 68.272 11.84C68.704 12.08 69.19 12.2 69.73 12.2ZM87.0554 4.388V12.542C87.0554 15.926 85.3934 17.618 82.0694 17.618C81.1934 17.618 80.3534 17.498 79.5494 17.258C78.7574 17.03 78.1034 16.694 77.5874 16.25L78.5954 14.558C79.0034 14.906 79.5014 15.182 80.0894 15.386C80.6774 15.59 81.2954 15.692 81.9434 15.692C82.9274 15.692 83.6474 15.452 84.1034 14.972C84.5714 14.504 84.8054 13.778 84.8054 12.794V12.344C84.4454 12.74 84.0074 13.046 83.4914 13.262C82.9754 13.466 82.4174 13.568 81.8174 13.568C80.5334 13.568 79.5194 13.214 78.7754 12.506C78.0434 11.798 77.6774 10.736 77.6774 9.32V4.388H79.9274V9.032C79.9274 9.884 80.1194 10.526 80.5034 10.958C80.8994 11.378 81.4574 11.588 82.1774 11.588C82.9814 11.588 83.6174 11.342 84.0854 10.85C84.5654 10.358 84.8054 9.644 84.8054 8.708V4.388H87.0554Z" fill="#102A67"/>
<path d="M95.4014 1.4C96.4934 1.4 97.4414 1.58 98.2454 1.94C99.0614 2.3 99.6854 2.816 100.117 3.488C100.549 4.16 100.765 4.958 100.765 5.882C100.765 6.794 100.549 7.592 100.117 8.276C99.6854 8.948 99.0614 9.464 98.2454 9.824C97.4414 10.184 96.4934 10.364 95.4014 10.364H92.5574V14H90.2174V1.4H95.4014ZM95.2934 8.384C96.3134 8.384 97.0874 8.168 97.6154 7.736C98.1434 7.304 98.4074 6.686 98.4074 5.882C98.4074 5.078 98.1434 4.46 97.6154 4.028C97.0874 3.596 96.3134 3.38 95.2934 3.38H92.5574V8.384H95.2934ZM112.247 4.388V14H110.105V12.758C109.733 13.214 109.271 13.556 108.719 13.784C108.179 14.012 107.579 14.126 106.919 14.126C105.983 14.126 105.143 13.922 104.399 13.514C103.667 13.106 103.091 12.53 102.671 11.786C102.263 11.042 102.059 10.178 102.059 9.194C102.059 8.21 102.263 7.352 102.671 6.62C103.091 5.876 103.667 5.3 104.399 4.892C105.143 4.484 105.983 4.28 106.919 4.28C107.543 4.28 108.113 4.388 108.629 4.604C109.157 4.82 109.613 5.138 109.997 5.558V4.388H112.247ZM107.171 12.2C107.999 12.2 108.683 11.924 109.223 11.372C109.763 10.82 110.033 10.094 110.033 9.194C110.033 8.294 109.763 7.568 109.223 7.016C108.683 6.464 107.999 6.188 107.171 6.188C106.343 6.188 105.659 6.464 105.119 7.016C104.591 7.568 104.327 8.294 104.327 9.194C104.327 10.094 104.591 10.82 105.119 11.372C105.659 11.924 106.343 12.2 107.171 12.2ZM124.605 0.643999V14H122.445V12.758C122.073 13.214 121.611 13.556 121.059 13.784C120.519 14.012 119.919 14.126 119.259 14.126C118.335 14.126 117.501 13.922 116.757 13.514C116.025 13.106 115.449 12.53 115.029 11.786C114.609 11.03 114.399 10.166 114.399 9.194C114.399 8.222 114.609 7.364 115.029 6.62C115.449 5.876 116.025 5.3 116.757 4.892C117.501 4.484 118.335 4.28 119.259 4.28C119.895 4.28 120.477 4.388 121.005 4.604C121.533 4.82 121.983 5.144 122.355 5.576V0.643999H124.605ZM119.529 12.2C120.069 12.2 120.555 12.08 120.987 11.84C121.419 11.588 121.761 11.234 122.013 10.778C122.265 10.322 122.391 9.794 122.391 9.194C122.391 8.594 122.265 8.066 122.013 7.61C121.761 7.154 121.419 6.806 120.987 6.566C120.555 6.314 120.069 6.188 119.529 6.188C118.989 6.188 118.503 6.314 118.071 6.566C117.639 6.806 117.297 7.154 117.045 7.61C116.793 8.066 116.667 8.594 116.667 9.194C116.667 9.794 116.793 10.322 117.045 10.778C117.297 11.234 117.639 11.588 118.071 11.84C118.503 12.08 118.989 12.2 119.529 12.2ZM127.548 4.388H129.798V14H127.548V4.388ZM128.682 2.804C128.274 2.804 127.932 2.678 127.656 2.426C127.38 2.162 127.242 1.838 127.242 1.454C127.242 1.07 127.38 0.751999 127.656 0.499999C127.932 0.235999 128.274 0.104 128.682 0.104C129.09 0.104 129.432 0.23 129.708 0.481999C129.984 0.722 130.122 1.028 130.122 1.4C130.122 1.796 129.984 2.132 129.708 2.408C129.444 2.672 129.102 2.804 128.682 2.804Z" fill="#225ADC"/>
</svg>
