<svg width="90" height="95" viewBox="0 0 90 95" fill="none" xmlns="http://www.w3.org/2000/svg">
<path d="M37.49 80L18.965 61.48L26.04 54.405L37.51 65.88L63.975 39.415L71.05 46.49L37.49 80ZM90 20V85C90 87.6522 88.9464 90.1957 87.0711 92.0711C85.1957 93.9464 82.6522 95 80 95H10C7.34784 95 4.8043 93.9464 2.92893 92.0711C1.05357 90.1957 0 87.6522 0 85V20C0 17.3478 1.05357 14.8043 2.92893 12.9289C4.8043 11.0536 7.34784 10 10 10H15V0H25V10H65V0H75V10H80C82.6522 10 85.1957 11.0536 87.0711 12.9289C88.9464 14.8043 90 17.3478 90 20ZM80 30H10V85H80V30Z" fill="#333333"/>
</svg>
