<svg width="244" height="238" viewBox="0 0 244 238" fill="none" xmlns="http://www.w3.org/2000/svg">
<path d="M35.7388 219.252C83.381 244.144 160.624 244.144 208.266 219.252C255.908 194.36 255.914 154.01 208.266 129.118C160.618 104.226 83.381 104.232 35.7331 129.118C-11.9148 154.004 -11.9091 194.354 35.7388 219.252Z" fill="#102A67"/>
<path d="M95.9375 197.635C108.777 203.755 129.59 203.755 142.401 197.635C155.213 191.515 155.241 181.599 142.401 175.48C129.561 169.36 108.755 169.36 95.9375 175.48C83.1204 181.599 83.075 191.521 95.9375 197.635Z" fill="#225ADC"/>
<path d="M207.088 182.489L161.191 208.979C160.81 209.172 160.39 209.272 159.964 209.272C159.538 209.272 159.117 209.172 158.737 208.979L101.366 175.842C101.218 175.792 101.089 175.697 100.998 175.57C100.907 175.443 100.858 175.29 100.858 175.134C100.858 174.978 100.907 174.825 100.998 174.698C101.089 174.571 101.218 174.476 101.366 174.426L147.263 147.936C147.643 147.743 148.063 147.643 148.49 147.643C148.916 147.643 149.336 147.743 149.716 147.936L207.105 181.072C207.252 181.124 207.38 181.221 207.469 181.349C207.559 181.477 207.606 181.63 207.604 181.787C207.602 181.943 207.551 182.095 207.459 182.221C207.366 182.347 207.236 182.441 207.088 182.489Z" fill="#225ADC"/>
<path d="M219.859 36.8707V49.0363C219.859 49.0363 214.862 51.3765 205.694 51.3765C196.526 51.3765 191.528 49.0306 191.528 49.0306V37.1314L201.093 10.0635C200.962 10.9134 201.461 11.7634 202.583 12.432C203.404 12.9386 204.337 13.2351 205.299 13.2954C206.262 13.3557 207.224 13.1778 208.102 12.7776C208.348 12.6807 208.587 12.5652 208.816 12.432C210.006 11.7464 210.516 10.8058 210.283 9.91049L219.859 36.8707Z" fill="#102A67"/>
<path opacity="0.5" d="M219.859 36.8707V49.0363C219.859 49.0363 214.862 51.3765 205.694 51.3765C196.526 51.3765 191.528 49.0306 191.528 49.0306V37.1314L201.093 10.0635C200.962 10.9134 201.461 11.7634 202.583 12.432C203.404 12.9386 204.337 13.2351 205.299 13.2954C206.262 13.3557 207.224 13.1778 208.102 12.7776C208.348 12.6807 208.587 12.5652 208.816 12.432C210.006 11.7464 210.516 10.8058 210.283 9.91049L219.859 36.8707Z" fill="white"/>
<path d="M218.76 122.149C217.939 123.23 216.898 124.126 215.706 124.778C210.164 127.979 201.183 127.979 195.647 124.778C194.453 124.127 193.41 123.231 192.588 122.149C191.948 121.298 191.57 120.28 191.5 119.219V125.537C191.602 127.554 192.979 129.554 195.647 131.096C201.183 134.291 210.164 134.291 215.706 131.096C218.471 129.498 219.859 127.401 219.859 125.305V118.992C219.838 120.135 219.453 121.24 218.76 122.149Z" fill="#102A67"/>
<path d="M218.76 115.831C217.939 116.913 216.898 117.809 215.706 118.46C215.377 118.647 215.043 118.822 214.697 118.987C209.467 121.48 201.88 121.48 196.656 118.987C196.31 118.822 195.97 118.647 195.647 118.46C194.453 117.809 193.41 116.913 192.588 115.831C191.948 114.982 191.57 113.966 191.5 112.907V119.219C191.57 120.28 191.948 121.298 192.588 122.149C193.41 123.231 194.453 124.127 195.647 124.778C201.183 127.979 210.164 127.979 215.706 124.778C216.898 124.126 217.939 123.23 218.76 122.149C219.453 121.24 219.838 120.135 219.859 118.992V112.674C219.839 113.817 219.454 114.923 218.76 115.831Z" fill="#225ADC"/>
<path d="M218.76 109.513C217.938 110.595 216.897 111.493 215.706 112.148C215.377 112.334 215.043 112.504 214.697 112.674C209.467 115.168 201.88 115.168 196.656 112.674C196.31 112.504 195.97 112.334 195.647 112.148C194.454 111.493 193.412 110.595 192.588 109.513C191.948 108.665 191.57 107.649 191.5 106.589V112.907C191.57 113.966 191.948 114.982 192.588 115.831C193.41 116.913 194.453 117.809 195.647 118.46C195.97 118.647 196.31 118.822 196.656 118.987C201.88 121.48 209.467 121.48 214.697 118.987C215.043 118.822 215.377 118.647 215.706 118.46C216.898 117.809 217.939 116.913 218.76 115.831C219.454 114.923 219.839 113.817 219.859 112.674V106.357C219.84 107.499 219.454 108.605 218.76 109.513Z" fill="#102A67"/>
<path d="M191.5 37.1087V106.589C191.57 107.649 191.948 108.665 192.588 109.513C193.412 110.595 194.454 111.493 195.647 112.147C195.97 112.334 196.31 112.504 196.656 112.674C198.026 113.313 199.468 113.783 200.951 114.074L198.384 40.8485L191.5 37.1087Z" fill="#102A67"/>
<path d="M212.969 40.8485L210.397 114.074C211.88 113.783 213.322 113.313 214.692 112.674C215.037 112.504 215.372 112.334 215.7 112.148C216.892 111.493 217.932 110.595 218.755 109.513C219.449 108.605 219.834 107.499 219.854 106.357V36.8707L212.969 40.8485Z" fill="#102A67"/>
<path d="M191.5 37.1087V106.589C191.57 107.649 191.948 108.665 192.588 109.513C193.412 110.595 194.454 111.493 195.647 112.147C195.97 112.334 196.31 112.504 196.656 112.674C198.026 113.313 199.468 113.783 200.951 114.074L198.384 40.8485L191.5 37.1087Z" fill="#E0E0E0"/>
<path d="M212.969 40.8485L210.397 114.074C211.88 113.783 213.322 113.313 214.692 112.674C215.037 112.504 215.372 112.334 215.7 112.148C216.892 111.493 217.932 110.595 218.755 109.513C219.449 108.605 219.834 107.499 219.854 106.357V36.8707L212.969 40.8485Z" fill="#E0E0E0"/>
<path d="M198.384 40.8485V113.377C199.223 113.667 200.081 113.902 200.951 114.08C202.507 114.394 204.09 114.552 205.677 114.55C207.264 114.549 208.846 114.391 210.402 114.08C211.272 113.902 212.13 113.667 212.969 113.377V40.8485H198.384Z" fill="#225ADC"/>
<path d="M208.793 12.4037C208.564 12.5369 208.326 12.6524 208.079 12.7493C207.202 13.1495 206.239 13.3273 205.276 13.267C204.314 13.2068 203.381 12.9102 202.56 12.4037C201.427 11.7577 200.94 10.8851 201.07 10.0352L204.334 0.895414C204.441 0.628149 204.627 0.399618 204.867 0.239839C205.106 0.0800605 205.389 -0.00349739 205.677 0.00013752C205.966 -0.00386229 206.249 0.0794728 206.489 0.239226C206.73 0.398978 206.917 0.627698 207.025 0.895414L210.255 9.87083C210.476 10.7661 209.983 11.718 208.793 12.4037Z" fill="#E0E0E0"/>
<path d="M215.706 131.096C210.946 133.844 203.648 134.223 198.175 132.229C197.869 132.123 197.568 132.004 197.274 131.872L196.866 131.702C196.441 131.509 196.033 131.3 195.647 131.079C192.979 129.537 191.602 127.537 191.5 125.52V142.734C191.398 144.91 192.775 147.103 195.647 148.757C195.987 148.956 196.344 149.143 196.713 149.324C196.849 149.392 196.996 149.443 197.132 149.505C197.37 149.607 197.602 149.715 197.846 149.806C198.09 149.896 198.226 149.942 198.413 150.004C198.6 150.066 198.815 150.151 199.024 150.214C199.234 150.276 199.489 150.344 199.721 150.406C199.954 150.469 200.078 150.508 200.26 150.548C200.441 150.588 200.798 150.667 201.07 150.718C201.223 150.718 201.376 150.786 201.529 150.809C201.835 150.865 202.147 150.905 202.458 150.95L202.827 151.001C203.172 151.041 203.518 151.069 203.863 151.092H204.135C204.515 151.12 204.895 151.132 205.269 151.137H205.45C205.858 151.137 206.266 151.137 206.674 151.137H206.765C207.195 151.137 207.626 151.086 208.057 151.047C210.58 150.832 213.038 150.128 215.292 148.973C215.417 148.905 215.547 148.848 215.672 148.774C218.437 147.177 219.825 145.08 219.825 142.983V125.305C219.859 127.401 218.471 129.498 215.706 131.096Z" fill="#E0E0E0"/>
<path d="M44.6462 141.136C43.0086 140.723 34.2655 135.748 33.3759 135.141C32.4863 134.535 30.7297 133.283 30.7297 131.124C30.7297 129.214 30.9281 111.207 32.492 102.509C33.0057 99.8034 34.0675 97.2314 35.612 94.9513C37.1565 92.6711 39.151 90.7309 41.473 89.25C46.9127 85.8785 52.3807 83.4364 56.9874 85.3516C61.5941 87.2668 65.7985 90.7856 67.6117 95.0353C69.4249 99.285 70.6658 107.796 70.7961 111.088C70.9265 114.38 70.7961 125.667 70.7961 126.67C70.7961 127.673 70.6148 128.976 65.2148 132.337C59.8148 135.697 52.358 139.703 50.0518 140.74C48.3365 141.437 46.4449 141.576 44.6462 141.136Z" fill="#37474F"/>
<path d="M43.2976 91.5902C42.799 91.8735 41.3597 91.1652 41.1444 90.8082C40.9291 90.4512 40.8724 87.3631 41.949 85.6576C43.0256 83.952 49.7402 80.8072 51.4004 81.0395C52.0222 81.1408 52.6169 81.3679 53.1479 81.7069C53.6789 82.046 54.1351 82.4899 54.4885 83.0114C54.6925 83.4477 54.9192 86.3205 54.4885 86.9098C54.0579 87.4991 52.5223 86.5925 52.3863 86.3432C52.2503 86.0939 52.8906 83.9917 51.8197 83.5554C50.8338 83.1587 46.1534 85.1476 44.2495 86.7455C43.4223 87.4424 43.4619 89.1707 43.5016 90.0263C43.5412 90.8819 43.5469 91.4429 43.2976 91.5902Z" fill="#455A64"/>
<path d="M41.949 111.864C42.9123 102.509 44.6462 97.0468 53.7972 92.9728C62.9483 88.8987 66.5011 92.3665 67.7987 95.4886C69.4986 99.863 70.6715 107.909 70.7961 111.088C70.9265 114.38 70.7961 125.667 70.7961 126.67C70.7961 127.673 70.6148 128.976 65.2148 132.337C59.8149 135.697 52.358 139.703 50.0518 140.74C48.3383 141.443 46.4467 141.587 44.6462 141.153C44.2845 141.043 43.9321 140.905 43.5922 140.74C40.7421 137.079 41.0651 120.409 41.949 111.864Z" fill="#455A64"/>
<path d="M63.2826 89.318C60.8914 87.9184 56.9704 86.9948 51.2134 89.5616C40.9234 94.1457 38.3112 99.8856 37.2743 109.96C37.0873 111.808 36.8097 114.006 36.7077 116.369L35.8577 115.853C35.9767 113.303 36.226 111.122 36.4244 109.15C37.5576 99.0017 40.6004 93.3921 50.4314 89.012C55.8768 86.5868 59.4522 86.9041 61.8207 88.0997C62.3293 88.4795 62.8173 88.8862 63.2826 89.318Z" fill="#263238"/>
<path d="M63.6396 89.5786C61.2541 88.1791 57.3273 87.2554 51.5761 89.8223C41.2804 94.4063 38.6682 100.146 37.6313 110.221C37.4443 112.068 37.1667 114.267 37.0647 116.63L36.2147 116.114C36.3337 113.564 36.583 111.383 36.7814 109.411C37.9146 99.2623 40.9574 93.647 50.7884 89.2727C56.2338 86.8475 59.9055 87.2498 62.274 88.4397C62.7503 88.7934 63.2062 89.1736 63.6396 89.5786Z" fill="#455A64"/>
<path d="M60.3078 98.4747L57.197 96.6955C57.0435 96.6094 56.8622 96.5872 56.6925 96.6339C56.5228 96.6806 56.3783 96.7923 56.2904 96.9448L53.1003 102.492C53.0114 102.645 52.9865 102.826 53.0311 102.997C53.0757 103.168 53.1861 103.315 53.3383 103.404L56.4094 105.195C56.5621 105.284 56.7437 105.309 56.9146 105.264C57.0855 105.22 57.2319 105.109 57.3217 104.957L60.5515 99.3757C60.5957 99.3008 60.6246 99.2178 60.6363 99.1316C60.648 99.0454 60.6423 98.9578 60.6196 98.8738C60.5969 98.7899 60.5576 98.7113 60.5041 98.6427C60.4505 98.5742 60.3838 98.5171 60.3078 98.4747Z" fill="#263238"/>
<path d="M56.9704 104.56L60.0358 99.2737C60.0579 99.2359 60.0722 99.194 60.0779 99.1506C60.0836 99.1071 60.0805 99.063 60.0689 99.0208C60.0573 98.9786 60.0374 98.9391 60.0103 98.9047C59.9832 98.8702 59.9495 98.8416 59.9112 98.8204L57.078 97.2111C57.0013 97.1681 56.9106 97.157 56.8258 97.1803C56.7409 97.2037 56.6687 97.2595 56.6247 97.3358L53.5933 102.6C53.5502 102.677 53.5391 102.767 53.5624 102.852C53.5858 102.937 53.6416 103.009 53.7179 103.053L56.5001 104.679C56.5384 104.704 56.5813 104.72 56.6261 104.727C56.671 104.734 56.7168 104.732 56.7608 104.721C56.8048 104.71 56.8461 104.69 56.8821 104.662C56.9181 104.635 56.9482 104.6 56.9704 104.56Z" fill="#455A64"/>
<path d="M57.6277 102.033C57.7093 101.984 57.7785 101.916 57.8296 101.835C57.8807 101.755 57.9124 101.663 57.9223 101.569V99.0357C57.9223 98.8714 57.792 98.8204 57.6277 98.911C57.546 98.9604 57.4769 99.0281 57.4257 99.1087C57.3746 99.1894 57.3429 99.2807 57.333 99.3757V101.909C57.333 102.073 57.4633 102.124 57.6277 102.033Z" fill="#37474F"/>
<path d="M55.9844 102.985C56.066 102.934 56.1348 102.865 56.1859 102.784C56.2369 102.702 56.2688 102.61 56.2791 102.515V99.9876C56.2791 99.8233 56.1431 99.7666 55.9844 99.863C55.9022 99.9117 55.8326 99.9792 55.7814 100.06C55.7302 100.141 55.6988 100.232 55.6898 100.328V102.86C55.7068 103.019 55.8201 103.076 55.9844 102.985Z" fill="#37474F"/>
<path d="M46.1874 119.774C46.1874 119.774 47.7286 121.044 48.8392 125.826C49.9498 130.608 50.6184 136.632 49.4059 137.357C48.1933 138.082 46.4424 136.564 46.0061 136.042C45.1108 134.971 45.3318 123.605 46.1874 119.774Z" fill="#263238"/>
<path d="M46.1874 119.774C46.1874 119.774 47.7286 121.044 48.8392 125.826C49.9498 130.608 50.6185 136.632 49.4059 137.357L68.1047 126.33C69.3286 125.605 69.6289 119.276 68.524 114.493C67.793 111.349 66.4501 109.853 65.6228 109.195C65.433 109.049 65.2037 108.962 64.9644 108.947C64.725 108.932 64.4867 108.989 64.2799 109.11L46.1874 119.774Z" fill="#37474F"/>
<path d="M65.2375 109.926C66.1328 110.368 67.6514 111.587 68.337 114.822C68.4526 115.262 68.4422 115.726 68.3069 116.161C68.1717 116.596 67.9171 116.984 67.572 117.281C66.9487 117.723 53.5649 125.333 51.7914 126.393C50.2615 127.305 49.4682 126.092 49.1339 125.333C48.5673 123.984 48.08 122.936 47.6607 122.132C47.3405 121.254 46.8406 120.453 46.1931 119.78L64.0249 109.977C64.2074 109.87 64.4134 109.809 64.6249 109.801C64.8363 109.792 65.0467 109.835 65.2375 109.926Z" fill="#263238"/>
<path d="M37.2856 117.157C37.5446 118.131 37.7134 119.126 37.7899 120.131C37.7899 120.335 37.5123 120.443 37.433 120.443C36.785 120.313 36.1852 120.007 35.6991 119.559C35.7899 118.702 35.9452 117.854 36.1637 117.021L37.2856 117.157Z" fill="#263238"/>
<path d="M37.8636 116.358C37.8636 116.144 37.8001 115.934 37.6812 115.756C37.5623 115.578 37.3933 115.44 37.1955 115.358C36.9977 115.276 36.7801 115.254 36.5702 115.296C36.3603 115.338 36.1674 115.441 36.0161 115.592C35.8647 115.744 35.7616 115.936 35.7199 116.146C35.6781 116.356 35.6995 116.574 35.7814 116.772C35.8634 116.969 36.0021 117.139 36.1801 117.257C36.358 117.376 36.5673 117.44 36.7813 117.44C37.0684 117.44 37.3436 117.326 37.5466 117.123C37.7496 116.92 37.8636 116.645 37.8636 116.358Z" fill="#263238"/>
<path d="M51.4004 83.5044C52.5846 83.391 53.7009 83.5044 53.9842 84.6886C54.2675 85.8729 54.1655 86.9552 53.9842 87.1025C53.3842 87.0264 52.8243 86.7604 52.3863 86.3432C52.2503 86.0882 52.8906 83.9917 51.8197 83.5554C51.6884 83.5118 51.5497 83.4944 51.4117 83.5044H51.4004Z" fill="#263238"/>
<path d="M64.3932 109.048C64.5764 108.94 64.7834 108.879 64.996 108.87C65.2085 108.861 65.4199 108.905 65.6115 108.997C66.5068 109.439 68.0253 110.657 68.7109 113.893C68.8259 114.333 68.8151 114.797 68.6799 115.232C68.5447 115.666 68.2905 116.054 67.946 116.352C67.3227 116.794 53.9446 124.404 52.171 125.463C50.6411 126.376 49.8422 125.163 49.5079 124.404C47.655 120.528 46.1874 119.774 46.1874 119.774L64.3932 109.048Z" fill="#37474F"/>
<path d="M61.1861 174.97L46.1817 166.312C45.7899 166.055 45.4638 165.71 45.2296 165.305C44.9954 164.899 44.8596 164.445 44.8332 163.977V164.147C44.8587 163.679 44.9941 163.224 45.2284 162.819C45.4627 162.413 45.7893 162.068 46.1817 161.813L76.3548 144.394C76.7716 144.182 77.2327 144.071 77.7005 144.071C78.1683 144.071 78.6295 144.182 79.0463 144.394L94.0506 153.058C94.4436 153.312 94.7707 153.655 95.0051 154.06C95.2395 154.465 95.3746 154.92 95.3992 155.387V155.217C95.3743 155.684 95.2398 156.139 95.0065 156.545C94.7732 156.95 94.4477 157.295 94.0563 157.552L63.8833 174.97C63.4655 175.182 63.0034 175.293 62.5347 175.293C62.066 175.293 61.6039 175.182 61.1861 174.97Z" fill="#225ADC"/>
<path opacity="0.7" d="M61.1861 174.97L46.1817 166.312C45.7899 166.055 45.4638 165.71 45.2296 165.305C44.9954 164.899 44.8596 164.445 44.8332 163.977V164.147C44.8587 163.679 44.9941 163.224 45.2284 162.819C45.4627 162.413 45.7893 162.068 46.1817 161.813L76.3548 144.394C76.7716 144.182 77.2327 144.071 77.7005 144.071C78.1683 144.071 78.6295 144.182 79.0463 144.394L94.0506 153.058C94.4436 153.312 94.7707 153.655 95.0051 154.06C95.2395 154.465 95.3746 154.92 95.3992 155.387V155.217C95.3743 155.684 95.2398 156.139 95.0065 156.545C94.7732 156.95 94.4477 157.295 94.0563 157.552L63.8833 174.97C63.4655 175.182 63.0034 175.293 62.5347 175.293C62.066 175.293 61.6039 175.182 61.1861 174.97Z" fill="black"/>
<path d="M62.5064 152.373L46.1591 161.813C45.7667 162.068 45.4401 162.413 45.2058 162.819C44.9714 163.224 44.836 163.679 44.8105 164.147V163.977C44.8369 164.445 44.9727 164.899 45.2069 165.305C45.4412 165.71 45.7673 166.055 46.1591 166.312L61.1635 174.97C61.5782 175.19 62.0423 175.302 62.512 175.293L62.5064 152.373Z" fill="#225ADC"/>
<path opacity="0.7" d="M62.5064 152.373L46.1591 161.813C45.7667 162.068 45.4401 162.413 45.2058 162.819C44.9714 163.224 44.836 163.679 44.8105 164.147V163.977C44.8369 164.445 44.9727 164.899 45.2069 165.305C45.4412 165.71 45.7673 166.055 46.1591 166.312L61.1635 174.97C61.5782 175.19 62.0423 175.302 62.512 175.293L62.5064 152.373Z" fill="black"/>
<path d="M46.1761 163.371L61.1748 172.035C61.5935 172.244 62.0552 172.353 62.5233 172.353C62.9915 172.353 63.4532 172.244 63.8719 172.035L94.045 154.611C94.7929 154.18 94.7929 153.477 94.045 153.058L79.0406 144.394C78.6238 144.182 78.1627 144.071 77.6949 144.071C77.2271 144.071 76.7659 144.182 76.3491 144.394L46.1761 161.813C45.4281 162.243 45.4281 162.94 46.1761 163.371Z" fill="#225ADC"/>
<path opacity="0.5" d="M46.1761 163.371L61.1748 172.035C61.5935 172.244 62.0552 172.353 62.5233 172.353C62.9915 172.353 63.4532 172.244 63.8719 172.035L94.045 154.611C94.7929 154.18 94.7929 153.477 94.045 153.058L79.0406 144.394C78.6238 144.182 78.1627 144.071 77.6949 144.071C77.2271 144.071 76.7659 144.182 76.3491 144.394L46.1761 161.813C45.4281 162.243 45.4281 162.94 46.1761 163.371Z" fill="black"/>
<path d="M46.1761 160.521V161.96L61.7471 170.952C61.9841 171.089 62.2528 171.16 62.5262 171.16C62.7996 171.16 63.0682 171.089 63.3053 170.952L94.045 153.2V151.715L62.5234 167.014L46.1761 160.521Z" fill="#225ADC"/>
<path d="M61.1805 169.184L46.1761 160.521C45.783 160.266 45.4559 159.921 45.2216 159.515C44.9872 159.11 44.8521 158.654 44.8275 158.186V155.415C44.8521 154.947 44.9872 154.492 45.2216 154.086C45.4559 153.68 45.783 153.336 46.1761 153.081L76.3491 135.657C76.7659 135.445 77.2271 135.334 77.6949 135.334C78.1627 135.334 78.6238 135.445 79.0406 135.657L94.045 144.321C94.438 144.576 94.7651 144.92 94.9995 145.326C95.2339 145.732 95.3689 146.187 95.3936 146.655V149.432C95.3652 149.89 95.2281 150.334 94.9935 150.728C94.759 151.122 94.4338 151.455 94.045 151.698L63.8719 169.167C63.4565 169.383 62.996 169.496 62.5282 169.499C62.0604 169.502 61.5986 169.394 61.1805 169.184Z" fill="#225ADC"/>
<path opacity="0.6" d="M61.1805 169.184L46.1761 160.521C45.783 160.266 45.4559 159.921 45.2216 159.515C44.9872 159.11 44.8521 158.654 44.8275 158.186V155.415C44.8521 154.947 44.9872 154.492 45.2216 154.086C45.4559 153.68 45.783 153.336 46.1761 153.081L76.3491 135.657C76.7659 135.445 77.2271 135.334 77.6949 135.334C78.1627 135.334 78.6238 135.445 79.0406 135.657L94.045 144.321C94.438 144.576 94.7651 144.92 94.9995 145.326C95.2339 145.732 95.3689 146.187 95.3936 146.655V149.432C95.3652 149.89 95.2281 150.334 94.9935 150.728C94.759 151.122 94.4338 151.455 94.045 151.698L63.8719 169.167C63.4565 169.383 62.996 169.496 62.5282 169.499C62.0604 169.502 61.5986 169.394 61.1805 169.184Z" fill="black"/>
<path d="M62.5064 143.641L46.1591 153.081C45.766 153.336 45.439 153.68 45.2046 154.086C44.9702 154.492 44.8351 154.947 44.8105 155.415V158.186C44.8351 158.654 44.9702 159.11 45.2046 159.515C45.439 159.921 45.766 160.266 46.1591 160.521L61.1635 169.184C61.5758 169.406 62.0384 169.517 62.5064 169.507V143.641Z" fill="#225ADC"/>
<path opacity="0.7" d="M62.5064 143.641L46.1591 153.081C45.766 153.336 45.439 153.68 45.2046 154.086C44.9702 154.492 44.8351 154.947 44.8105 155.415V158.186C44.8351 158.654 44.9702 159.11 45.2046 159.515C45.439 159.921 45.766 160.266 46.1591 160.521L61.1635 169.184C61.5758 169.406 62.0384 169.517 62.5064 169.507V143.641Z" fill="black"/>
<path d="M46.1761 154.633L61.1748 163.297C61.5925 163.51 62.0546 163.62 62.5233 163.62C62.9921 163.62 63.4541 163.51 63.8719 163.297L94.045 145.879C94.7929 145.448 94.7929 144.746 94.045 144.321L79.0406 135.657C78.6238 135.445 78.1627 135.334 77.6949 135.334C77.2271 135.334 76.7659 135.445 76.3491 135.657L46.1761 153.081C45.4281 153.511 45.4281 154.208 46.1761 154.633Z" fill="#225ADC"/>
<path opacity="0.5" d="M46.1761 154.633L61.1748 163.297C61.5925 163.51 62.0546 163.62 62.5233 163.62C62.9921 163.62 63.4541 163.51 63.8719 163.297L94.045 145.879C94.7929 145.448 94.7929 144.746 94.045 144.321L79.0406 135.657C78.6238 135.445 78.1627 135.334 77.6949 135.334C77.2271 135.334 76.7659 135.445 76.3491 135.657L46.1761 153.081C45.4281 153.511 45.4281 154.208 46.1761 154.633Z" fill="black"/>
<path d="M67.1017 147.749C65.4415 148.712 65.4415 150.259 67.1017 151.211C68.0352 151.68 69.0656 151.925 70.1105 151.925C71.1554 151.925 72.1858 151.68 73.1193 151.211C74.7795 150.259 74.7795 148.712 73.1193 147.749C72.1866 147.277 71.1559 147.031 70.1105 147.031C69.0651 147.031 68.0344 147.277 67.1017 147.749Z" fill="#225ADC"/>
<path d="M91.6028 148.763C91.4488 148.864 91.3208 148.999 91.2293 149.159C91.1377 149.318 91.0851 149.497 91.0758 149.681C91.0758 150.021 91.3138 150.163 91.6028 149.998C91.7567 149.898 91.8847 149.762 91.9763 149.603C92.0679 149.443 92.1204 149.264 92.1297 149.08C92.1297 148.74 91.8918 148.599 91.6028 148.763Z" fill="#225ADC"/>
<path d="M91.6028 150.797C91.4488 150.898 91.3208 151.034 91.2293 151.193C91.1377 151.353 91.0851 151.532 91.0758 151.715C91.0758 152.055 91.3138 152.197 91.6028 152.033C91.7587 151.934 91.8882 151.799 91.98 151.639C92.0718 151.479 92.1232 151.299 92.1297 151.115C92.1297 150.775 91.8918 150.633 91.6028 150.797Z" fill="#225ADC"/>
<path d="M54.8965 186.421C54.8272 186.421 54.759 186.404 54.6982 186.37L40.1585 177.922C39.782 177.704 39.4695 177.391 39.2523 177.014C39.035 176.637 38.9207 176.209 38.9207 175.774C38.9207 175.339 39.035 174.912 39.2523 174.535C39.4695 174.158 39.782 173.845 40.1585 173.627L50.8168 167.473C50.9072 167.427 51.0118 167.418 51.1091 167.447C51.2063 167.476 51.2888 167.541 51.3396 167.628C51.3904 167.716 51.4056 167.82 51.3821 167.919C51.3587 168.017 51.2983 168.103 51.2134 168.159L40.5608 174.295C40.3071 174.446 40.097 174.66 39.951 174.916C39.8051 175.173 39.7283 175.462 39.7283 175.757C39.7283 176.052 39.8051 176.342 39.951 176.599C40.097 176.855 40.3071 177.069 40.5608 177.219L55.1005 185.656C55.1494 185.682 55.1923 185.718 55.2264 185.761C55.2605 185.804 55.2851 185.854 55.2984 185.908C55.3118 185.961 55.3137 186.017 55.304 186.071C55.2943 186.126 55.2732 186.177 55.2422 186.223C55.2081 186.284 55.1579 186.335 55.097 186.37C55.0361 186.405 54.9667 186.423 54.8965 186.421Z" fill="#225ADC"/>
<path d="M73.108 178.262L69.9575 165.615C69.9126 165.44 69.8538 165.27 69.7819 165.105L70.6998 164.974L68.6996 163.841C68.2799 163.613 67.8061 163.504 67.3289 163.525C66.8517 163.546 66.3892 163.696 65.9911 163.96L52.8737 171.553C51.9731 172.143 51.2241 172.936 50.6876 173.87C50.151 174.803 49.842 175.85 49.7855 176.925V192.133C49.7855 193.346 50.0802 194.178 50.6865 194.467L52.5677 195.555L52.1144 194.354L52.2164 194.314C54.3752 193.283 55.1572 191.402 55.8031 189.538L58.302 182.313C58.9479 180.449 60.5685 178.313 61.8944 177.537C63.2203 176.76 65.1129 177.537 66.0875 179.236L67.3454 181.435C67.7294 182.133 68.3082 182.704 69.0113 183.078L70.9265 184.211L70.4392 183.452C70.8375 183.453 71.2287 183.347 71.5724 183.146C72.8814 182.364 73.584 180.188 73.108 178.262Z" fill="#225ADC"/>
<path opacity="0.7" d="M73.108 178.262L69.9575 165.615C69.9126 165.44 69.8538 165.27 69.7819 165.105L70.6998 164.974L68.6996 163.841C68.2799 163.613 67.8061 163.504 67.3289 163.525C66.8517 163.546 66.3892 163.696 65.9911 163.96L52.8737 171.553C51.9731 172.143 51.2241 172.936 50.6876 173.87C50.151 174.803 49.842 175.85 49.7855 176.925V192.133C49.7855 193.346 50.0802 194.178 50.6865 194.467L52.5677 195.555L52.1144 194.354L52.2164 194.314C54.3752 193.283 55.1572 191.402 55.8031 189.538L58.302 182.313C58.9479 180.449 60.5685 178.313 61.8944 177.537C63.2203 176.76 65.1129 177.537 66.0875 179.236L67.3454 181.435C67.7294 182.133 68.3082 182.704 69.0113 183.078L70.9265 184.211L70.4392 183.452C70.8375 183.453 71.2287 183.347 71.5724 183.146C72.8814 182.364 73.584 180.188 73.108 178.262Z" fill="black"/>
<path d="M69.7819 165.105L70.6998 164.974L68.6996 163.841C68.2799 163.613 67.806 163.504 67.3288 163.525C66.8516 163.546 66.3892 163.696 65.9911 163.96L52.8736 171.553C52.1409 172.01 51.5149 172.618 51.0378 173.338L54.1599 175.242L70.1275 166.221L69.9745 165.615C69.924 165.44 69.8596 165.269 69.7819 165.105Z" fill="#225ADC"/>
<path opacity="0.5" d="M69.7819 165.105L70.6998 164.974L68.6996 163.841C68.2799 163.613 67.806 163.504 67.3288 163.525C66.8516 163.546 66.3892 163.696 65.9911 163.96L52.8736 171.553C52.1409 172.01 51.5149 172.618 51.0378 173.338L54.1599 175.242L70.1275 166.221L69.9745 165.615C69.924 165.44 69.8596 165.269 69.7819 165.105Z" fill="black"/>
<path d="M73.5726 184.325C72.2297 185.101 70.3428 184.325 69.3626 182.625L68.1103 180.426C67.13 178.727 65.2772 177.95 63.9116 178.727C62.546 179.503 60.9651 181.633 60.3191 183.503L57.826 190.722C57.18 192.586 56.3924 194.467 54.2335 195.499C52.6016 196.281 51.814 195.295 51.814 193.323V178.103C51.8725 177.029 52.183 175.983 52.7204 175.051C53.2579 174.119 54.0072 173.326 54.9078 172.737L68.048 165.116C68.4019 164.868 68.8133 164.715 69.2432 164.67C69.673 164.626 70.1071 164.692 70.5043 164.862C70.9015 165.032 71.2487 165.301 71.513 165.643C71.7772 165.985 71.9498 166.389 72.0144 166.816L75.1648 179.469C75.6295 181.361 74.9212 183.549 73.5726 184.325Z" fill="#225ADC"/>
<path opacity="0.6" d="M73.5726 184.325C72.2297 185.101 70.3428 184.325 69.3626 182.625L68.1103 180.426C67.13 178.727 65.2772 177.95 63.9116 178.727C62.546 179.503 60.9651 181.633 60.3191 183.503L57.826 190.722C57.18 192.586 56.3924 194.467 54.2335 195.499C52.6016 196.281 51.814 195.295 51.814 193.323V178.103C51.8725 177.029 52.183 175.983 52.7204 175.051C53.2579 174.119 54.0072 173.326 54.9078 172.737L68.048 165.116C68.4019 164.868 68.8133 164.715 69.2432 164.67C69.673 164.626 70.1071 164.692 70.5043 164.862C70.9015 165.032 71.2487 165.301 71.513 165.643C71.7772 165.985 71.9498 166.389 72.0144 166.816L75.1648 179.469C75.6295 181.361 74.9212 183.549 73.5726 184.325Z" fill="black"/>
<path d="M68.4786 169.496L68.8073 171.36L70.2635 170.431L70.5865 172.295L69.1359 173.23L69.4646 175.094L68.014 176.024L67.6853 174.159L66.2348 175.094L65.9061 173.225L67.3567 172.295L67.0281 170.431L68.4786 169.496Z" fill="#263238"/>
<path d="M68.8979 169.717L69.2266 171.581L70.6772 170.652L71.0058 172.516L69.5552 173.451L69.8839 175.315L68.4333 176.245L68.1047 174.38L66.6541 175.31L66.3254 173.446L67.776 172.516L67.4474 170.652L68.8979 169.717Z" fill="#225ADC"/>
<path d="M57.486 176.097C57.5248 176.36 57.4927 176.628 57.3931 176.874C57.2935 177.12 57.1299 177.335 56.9194 177.497C56.5171 177.752 56.1204 177.542 56.0298 177.027C55.9892 176.764 56.0204 176.495 56.1201 176.249C56.2199 176.002 56.3845 175.788 56.5964 175.627C56.993 175.372 57.4067 175.582 57.486 176.097Z" fill="#263238"/>
<path d="M58.1433 179.826C58.1839 180.088 58.1527 180.357 58.0529 180.604C57.9532 180.85 57.7886 181.065 57.5767 181.225C57.1744 181.48 56.7777 181.271 56.6871 180.761C56.6458 180.498 56.6768 180.229 56.7766 179.982C56.8764 179.736 57.0413 179.521 57.2537 179.361C57.6503 179.1 58.0526 179.31 58.1433 179.826Z" fill="#263238"/>
<path d="M59.2652 177.027C59.3065 177.289 59.2755 177.558 59.1757 177.805C59.0759 178.051 58.911 178.266 58.6986 178.426C58.2963 178.687 57.8997 178.477 57.809 177.962C57.7678 177.699 57.7987 177.43 57.8985 177.183C57.9983 176.937 58.1632 176.722 58.3756 176.562C58.7779 176.307 59.1746 176.511 59.2652 177.027Z" fill="#263238"/>
<path d="M56.3641 178.891C56.4053 179.154 56.3744 179.423 56.2746 179.669C56.1747 179.916 56.0098 180.13 55.7974 180.29C55.3951 180.551 54.9985 180.341 54.9078 179.826C54.8672 179.563 54.8985 179.294 54.9982 179.048C55.098 178.801 55.2625 178.587 55.4745 178.426C55.8768 178.171 56.2734 178.375 56.3641 178.891Z" fill="#263238"/>
<path d="M57.5143 176.114C57.5549 176.377 57.5237 176.646 57.4239 176.892C57.3242 177.139 57.1596 177.353 56.9477 177.514C56.5454 177.769 56.1487 177.565 56.0581 177.049C56.0169 176.787 56.0478 176.518 56.1476 176.271C56.2474 176.024 56.4123 175.81 56.6247 175.65C57.027 175.389 57.4067 175.599 57.5143 176.114Z" fill="#263238"/>
<path d="M58.1716 179.843C58.2129 180.106 58.1819 180.374 58.0821 180.621C57.9823 180.868 57.8174 181.082 57.605 181.242C57.2027 181.503 56.8061 181.293 56.7154 180.778C56.6742 180.515 56.7051 180.246 56.8049 179.999C56.9047 179.753 57.0696 179.538 57.282 179.378C57.6843 179.123 58.081 179.327 58.1716 179.843Z" fill="#263238"/>
<path d="M59.2936 177.049C59.3337 177.311 59.3023 177.579 59.2025 177.824C59.1027 178.07 58.9384 178.284 58.7269 178.443C58.3303 178.704 57.928 178.494 57.8373 177.979C57.798 177.716 57.8298 177.448 57.9294 177.201C58.0291 176.955 58.193 176.74 58.404 176.579C58.8063 176.324 59.2029 176.534 59.2936 177.049Z" fill="#263238"/>
<path d="M56.3924 178.913C56.433 179.176 56.4018 179.445 56.302 179.691C56.2023 179.938 56.0377 180.153 55.8258 180.313C55.4291 180.568 55.0268 180.358 54.9362 179.843C54.8974 179.58 54.9295 179.312 55.0291 179.066C55.1287 178.82 55.2923 178.605 55.5028 178.443C55.9051 178.188 56.3018 178.398 56.3924 178.913Z" fill="#263238"/>
<path d="M57.5427 176.131C57.5839 176.394 57.553 176.663 57.4532 176.91C57.3534 177.156 57.1885 177.371 56.9761 177.531C56.5794 177.792 56.1771 177.582 56.0864 177.066C56.0471 176.804 56.0789 176.535 56.1785 176.289C56.2782 176.043 56.4421 175.828 56.6531 175.667C57.0554 175.412 57.452 175.616 57.5427 176.131Z" fill="#263238"/>
<path d="M58.1999 179.865C58.2401 180.127 58.2086 180.395 58.1089 180.641C58.0091 180.886 57.8448 181.1 57.6333 181.259C57.2367 181.52 56.8344 181.31 56.7437 180.795C56.7043 180.532 56.7361 180.264 56.8358 180.017C56.9355 179.771 57.0993 179.556 57.3103 179.395C57.7126 179.14 58.1093 179.35 58.1999 179.865Z" fill="#263238"/>
<path d="M59.3276 177.066C59.3669 177.329 59.3351 177.597 59.2355 177.843C59.1358 178.09 58.9719 178.305 58.7609 178.466C58.3586 178.721 57.962 178.511 57.8713 178.001C57.8301 177.738 57.861 177.469 57.9608 177.223C58.0606 176.976 58.2256 176.762 58.438 176.602C58.8346 176.341 59.2369 176.551 59.3276 177.066Z" fill="#263238"/>
<path d="M56.4264 178.93C56.4658 179.193 56.434 179.462 56.3343 179.708C56.2347 179.954 56.0708 180.169 55.8598 180.33C55.4575 180.585 55.0609 180.381 54.9702 179.865C54.929 179.603 54.9599 179.334 55.0597 179.087C55.1595 178.841 55.3244 178.626 55.5368 178.466C55.9335 178.205 56.3358 178.415 56.4264 178.93Z" fill="#263238"/>
<path d="M57.5767 176.154C57.616 176.417 57.5842 176.685 57.4846 176.931C57.3849 177.177 57.221 177.392 57.01 177.554C56.6077 177.809 56.2111 177.599 56.1204 177.083C56.0803 176.821 56.1117 176.554 56.2115 176.308C56.3113 176.063 56.4756 175.849 56.687 175.689C57.0837 175.429 57.486 175.655 57.5767 176.154Z" fill="#263238"/>
<path d="M58.234 179.882C58.2733 180.145 58.2415 180.413 58.1419 180.66C58.0422 180.906 57.8783 181.121 57.6673 181.282C57.265 181.537 56.8684 181.333 56.7777 180.817C56.7365 180.555 56.7674 180.286 56.8672 180.039C56.967 179.793 57.132 179.578 57.3444 179.418C57.741 179.157 58.1433 179.367 58.234 179.882Z" fill="#263238"/>
<path d="M59.3559 177.083C59.3971 177.346 59.3662 177.615 59.2664 177.862C59.1666 178.108 59.0017 178.323 58.7893 178.483C58.3869 178.743 57.9903 178.534 57.8996 178.018C57.859 177.756 57.8903 177.487 57.99 177.24C58.0898 176.994 58.2543 176.779 58.4663 176.619C58.8686 176.364 59.2652 176.568 59.3559 177.083Z" fill="#263238"/>
<path d="M56.4547 178.947C56.496 179.21 56.465 179.479 56.3652 179.726C56.2654 179.972 56.1005 180.187 55.8881 180.347C55.4858 180.608 55.0892 180.398 54.9985 179.882C54.9579 179.62 54.9891 179.351 55.0889 179.105C55.1886 178.858 55.3532 178.643 55.5651 178.483C55.9674 178.228 56.3641 178.432 56.4547 178.947Z" fill="#263238"/>
<path d="M57.605 176.171C57.6456 176.434 57.6144 176.702 57.5146 176.949C57.4149 177.195 57.2503 177.41 57.0384 177.571C56.6361 177.826 56.2394 177.622 56.1488 177.106C56.1075 176.843 56.1385 176.574 56.2383 176.328C56.3381 176.081 56.503 175.866 56.7154 175.706C57.1177 175.446 57.5143 175.655 57.605 176.171Z" fill="#263238"/>
<path d="M58.2623 179.899C58.3035 180.162 58.2726 180.431 58.1728 180.678C58.073 180.924 57.9081 181.139 57.6957 181.299C57.2933 181.56 56.8967 181.35 56.806 180.834C56.7654 180.572 56.7967 180.303 56.8964 180.056C56.9962 179.81 57.1607 179.595 57.3727 179.435C57.775 179.18 58.1716 179.384 58.2623 179.899Z" fill="#263238"/>
<path d="M59.3842 177.106C59.4242 177.369 59.3927 177.637 59.293 177.884C59.1933 178.13 59.029 178.345 58.8176 178.506C58.4153 178.761 58.0186 178.551 57.928 178.035C57.8874 177.773 57.9186 177.504 58.0183 177.257C58.1181 177.011 58.2827 176.796 58.4946 176.636C58.8969 176.381 59.2935 176.59 59.3842 177.106Z" fill="#263238"/>
<path d="M56.4831 178.97C56.5237 179.233 56.4924 179.502 56.3927 179.748C56.2929 179.994 56.1284 180.209 55.9164 180.37C55.5198 180.625 55.1175 180.415 55.0268 179.899C54.9879 179.638 55.0199 179.37 55.1196 179.125C55.2193 178.88 55.3829 178.666 55.5935 178.506C55.9958 178.245 56.3924 178.455 56.4831 178.97Z" fill="#263238"/>
<path d="M57.6333 176.188C57.6746 176.451 57.6436 176.72 57.5438 176.966C57.444 177.213 57.2791 177.428 57.0667 177.588C56.6701 177.848 56.2678 177.639 56.1771 177.123C56.1377 176.86 56.1695 176.592 56.2692 176.346C56.3689 176.1 56.5327 175.885 56.7437 175.723C57.146 175.468 57.5427 175.655 57.6333 176.188Z" fill="#263238"/>
<path d="M58.2906 179.922C58.3306 180.185 58.2991 180.453 58.1994 180.7C58.0997 180.946 57.9355 181.161 57.724 181.322C57.3274 181.577 56.9251 181.367 56.8344 180.851C56.795 180.589 56.8268 180.32 56.9265 180.074C57.0262 179.828 57.19 179.613 57.401 179.452C57.8033 179.197 58.2 179.406 58.2906 179.922Z" fill="#263238"/>
<path d="M59.4125 177.123C59.4531 177.386 59.4219 177.654 59.3222 177.901C59.2224 178.147 59.0578 178.362 58.8459 178.523C58.4493 178.777 58.047 178.573 57.9563 178.058C57.9163 177.795 57.9478 177.527 58.0475 177.28C58.1472 177.034 58.3115 176.819 58.5229 176.658C58.9252 176.398 59.3219 176.607 59.4125 177.123Z" fill="#263238"/>
<path d="M56.5171 178.987C56.5564 179.25 56.5246 179.518 56.425 179.764C56.3253 180.011 56.1614 180.225 55.9504 180.387C55.5481 180.642 55.1515 180.438 55.0608 179.922C55.0196 179.659 55.0505 179.39 55.1503 179.144C55.2502 178.897 55.4151 178.683 55.6275 178.523C56.0241 178.262 56.4264 178.489 56.5171 178.987Z" fill="#263238"/>
<path d="M57.6673 176.222C57.7067 176.485 57.6749 176.753 57.5752 176.999C57.4756 177.245 57.3117 177.46 57.1007 177.622C56.6984 177.877 56.3018 177.667 56.2111 177.157C56.1699 176.894 56.2008 176.625 56.3006 176.379C56.4004 176.132 56.5653 175.917 56.7777 175.757C57.1744 175.485 57.5767 175.695 57.6673 176.222Z" fill="#263238"/>
<path d="M58.3246 179.939C58.364 180.202 58.3322 180.47 58.2325 180.716C58.1329 180.962 57.969 181.177 57.758 181.339C57.3557 181.594 56.9591 181.39 56.8684 180.874C56.8272 180.611 56.8581 180.342 56.9579 180.096C57.0577 179.849 57.2226 179.634 57.435 179.474C57.8317 179.214 58.234 179.423 58.3246 179.939Z" fill="#263238"/>
<path d="M59.4466 177.14C59.4865 177.403 59.455 177.671 59.3553 177.917C59.2556 178.164 59.0914 178.379 58.8799 178.54C58.4776 178.8 58.081 178.591 57.9903 178.075C57.9497 177.812 57.9809 177.543 58.0807 177.297C58.1805 177.051 58.345 176.836 58.5569 176.675C58.9536 176.42 59.3559 176.624 59.4466 177.14Z" fill="#263238"/>
<path d="M56.5454 179.004C56.5867 179.267 56.5557 179.536 56.4559 179.782C56.3561 180.029 56.1912 180.244 55.9788 180.404C55.5765 180.664 55.1799 180.455 55.0892 179.939C55.0486 179.676 55.0798 179.408 55.1796 179.161C55.2793 178.915 55.4439 178.7 55.6558 178.54C56.0581 178.285 56.4548 178.489 56.5454 179.004Z" fill="#263238"/>
<path d="M57.6957 176.222C57.7369 176.485 57.7059 176.754 57.6061 177C57.5063 177.247 57.3414 177.462 57.129 177.622C56.7267 177.882 56.3301 177.673 56.2394 177.157C56.1982 176.894 56.2291 176.625 56.3289 176.379C56.4287 176.132 56.5937 175.917 56.8061 175.757C57.2084 175.502 57.605 175.712 57.6957 176.222Z" fill="#263238"/>
<path d="M58.3529 179.956C58.3942 180.219 58.3632 180.488 58.2634 180.734C58.1636 180.981 57.9987 181.196 57.7863 181.356C57.384 181.616 56.9874 181.407 56.8967 180.891C56.8561 180.628 56.8873 180.36 56.9871 180.113C57.0868 179.867 57.2514 179.652 57.4633 179.491C57.8657 179.236 58.2623 179.44 58.3529 179.956Z" fill="#263238"/>
<path d="M59.4749 177.163C59.5155 177.425 59.4842 177.694 59.3845 177.94C59.2847 178.187 59.1202 178.402 58.9082 178.562C58.5059 178.817 58.1093 178.607 58.0186 178.092C57.9785 177.83 58.01 177.562 58.1097 177.317C58.2095 177.071 58.3738 176.858 58.5853 176.698C58.9876 176.437 59.3842 176.647 59.4749 177.163Z" fill="#263238"/>
<path d="M56.5737 179.055C56.6143 179.318 56.5831 179.587 56.4834 179.833C56.3836 180.079 56.219 180.294 56.0071 180.455C55.6105 180.71 55.2082 180.5 55.1175 179.99C55.0763 179.727 55.1072 179.458 55.207 179.212C55.3068 178.965 55.4717 178.751 55.6841 178.591C56.0864 178.302 56.4831 178.489 56.5737 179.055Z" fill="#263238"/>
<path d="M57.724 176.25C57.7641 176.512 57.7327 176.78 57.6329 177.025C57.5331 177.271 57.3688 177.485 57.1574 177.644C56.755 177.905 56.3584 177.695 56.2677 177.18C56.2271 176.917 56.2584 176.648 56.3581 176.402C56.4579 176.155 56.6224 175.94 56.8344 175.78C57.2367 175.525 57.6333 175.735 57.724 176.25Z" fill="#263238"/>
<path d="M58.3813 179.979C58.4219 180.241 58.3906 180.51 58.2909 180.757C58.1911 181.003 58.0266 181.218 57.8146 181.378C57.418 181.633 57.0157 181.424 56.925 180.908C56.8849 180.646 56.9164 180.378 57.0161 180.133C57.1159 179.888 57.2802 179.674 57.4917 179.514C57.894 179.253 58.2906 179.463 58.3813 179.979Z" fill="#263238"/>
<path d="M59.5032 177.18C59.5438 177.442 59.5126 177.711 59.4128 177.957C59.3131 178.204 59.1485 178.419 58.9366 178.579C58.5399 178.834 58.1376 178.63 58.047 178.115C58.007 177.852 58.0385 177.583 58.1382 177.337C58.2379 177.091 58.4021 176.876 58.6136 176.715C59.0159 176.454 59.4125 176.664 59.5032 177.18Z" fill="#263238"/>
<path d="M56.6021 179.055C56.6433 179.318 56.6123 179.587 56.5125 179.833C56.4127 180.08 56.2478 180.295 56.0354 180.455C55.6388 180.715 55.2421 180.506 55.1458 179.99C55.1058 179.727 55.1373 179.459 55.2371 179.213C55.3368 178.966 55.501 178.751 55.7124 178.59C56.1147 178.319 56.5114 178.528 56.6021 179.055Z" fill="#263238"/>
<path d="M57.7523 176.267C57.7929 176.53 57.7617 176.799 57.6619 177.045C57.5622 177.292 57.3976 177.506 57.1857 177.667C56.7891 177.922 56.3867 177.712 56.2961 177.202C56.2561 176.94 56.2876 176.671 56.3873 176.425C56.487 176.178 56.6512 175.964 56.8627 175.803C57.265 175.542 57.6617 175.752 57.7523 176.267Z" fill="#263238"/>
<path d="M58.4096 179.996C58.4502 180.258 58.419 180.527 58.3192 180.774C58.2195 181.02 58.0549 181.235 57.843 181.395C57.4464 181.65 57.0497 181.446 56.9591 180.931C56.9178 180.668 56.9488 180.399 57.0486 180.152C57.1484 179.906 57.3133 179.691 57.5257 179.531C57.9223 179.27 58.319 179.48 58.4096 179.996Z" fill="#263238"/>
<path d="M59.5372 177.197C59.5772 177.459 59.5457 177.728 59.446 177.974C59.3463 178.22 59.182 178.435 58.9706 178.596C58.5683 178.857 58.1716 178.647 58.081 178.132C58.0404 177.869 58.0716 177.6 58.1714 177.354C58.2711 177.107 58.4357 176.892 58.6476 176.732C59.0443 176.477 59.4466 176.687 59.5372 177.197Z" fill="#263238"/>
<path d="M56.6361 179.055C56.675 179.317 56.6429 179.584 56.5433 179.83C56.4436 180.075 56.28 180.289 56.0694 180.449C55.6671 180.71 55.2705 180.5 55.1798 179.984C55.1392 179.722 55.1704 179.453 55.2702 179.207C55.37 178.96 55.5345 178.745 55.7465 178.585C56.1431 178.341 56.5454 178.551 56.6361 179.055Z" fill="#263238"/>
<path d="M57.7863 176.284C57.8263 176.547 57.7948 176.816 57.6951 177.062C57.5954 177.308 57.4312 177.523 57.2197 177.684C56.8174 177.945 56.4208 177.735 56.3301 177.219C56.2895 176.957 56.3207 176.688 56.4205 176.441C56.5202 176.195 56.6848 175.98 56.8967 175.82C57.2934 175.565 57.6957 175.769 57.7863 176.284Z" fill="#263238"/>
<path d="M58.4436 180.013C58.4836 180.275 58.4521 180.544 58.3524 180.79C58.2527 181.037 58.0885 181.251 57.877 181.412C57.4747 181.673 57.078 181.463 56.9874 180.948C56.9468 180.685 56.978 180.416 57.0778 180.17C57.1775 179.923 57.3421 179.709 57.554 179.548C57.9733 179.293 58.353 179.503 58.4436 180.013Z" fill="#263238"/>
<path d="M59.5655 177.219C59.6061 177.482 59.5749 177.751 59.4752 177.997C59.3754 178.244 59.2108 178.458 58.9989 178.619C58.5966 178.874 58.2 178.664 58.1093 178.154C58.0681 177.891 58.099 177.622 58.1988 177.376C58.2986 177.129 58.4635 176.915 58.6759 176.755C59.1066 176.494 59.4749 176.704 59.5655 177.219Z" fill="#263238"/>
<path d="M56.6644 179.083C56.705 179.346 56.6738 179.615 56.574 179.861C56.4743 180.108 56.3097 180.323 56.0978 180.483C55.6955 180.738 55.2988 180.528 55.2082 180.018C55.1669 179.756 55.1979 179.487 55.2977 179.24C55.3975 178.994 55.5624 178.779 55.7748 178.619C56.1771 178.358 56.5738 178.568 56.6644 179.083Z" fill="#263238"/>
<path d="M57.8147 176.307C57.8546 176.57 57.8231 176.838 57.7234 177.085C57.6237 177.331 57.4595 177.546 57.248 177.707C56.8457 177.962 56.4491 177.752 56.3584 177.236C56.3178 176.974 56.349 176.705 56.4488 176.458C56.5486 176.212 56.7131 175.997 56.925 175.837C57.3274 175.582 57.724 175.791 57.8147 176.307Z" fill="#263238"/>
<path d="M58.4719 180.035C58.5125 180.298 58.4813 180.567 58.3816 180.813C58.2818 181.06 58.1172 181.275 57.9053 181.435C57.503 181.69 57.1064 181.48 57.0157 180.97C56.9745 180.708 57.0054 180.439 57.1052 180.192C57.205 179.946 57.3699 179.731 57.5823 179.571C57.9733 179.31 58.3813 179.52 58.4719 180.035Z" fill="#263238"/>
<path d="M59.5939 177.236C59.6351 177.499 59.6042 177.768 59.5044 178.015C59.4046 178.261 59.2396 178.476 59.0272 178.636C58.6306 178.896 58.2283 178.687 58.1376 178.171C58.0976 177.909 58.1292 177.64 58.2289 177.394C58.3286 177.147 58.4928 176.932 58.7043 176.772C59.1066 176.511 59.5032 176.721 59.5939 177.236Z" fill="#263238"/>
<path d="M56.6927 179.1C56.734 179.363 56.703 179.632 56.6032 179.879C56.5034 180.125 56.3385 180.34 56.1261 180.5C55.7295 180.761 55.3272 180.551 55.2365 180.035C55.1971 179.773 55.2289 179.504 55.3286 179.258C55.4283 179.012 55.5921 178.797 55.8031 178.636C56.2054 178.381 56.6021 178.585 56.6927 179.1Z" fill="#263238"/>
<path d="M68.4786 169.496L68.898 169.717L67.4474 170.652L67.0281 170.431L68.4786 169.496Z" fill="#263238"/>
<path d="M67.3567 172.295L67.776 172.516L66.3254 173.446L65.9061 173.225L67.3567 172.295Z" fill="#263238"/>
<path d="M69.2266 171.581L69.1472 171.145L70.2635 170.431L70.6771 170.652L69.2266 171.581Z" fill="#263238"/>
<path d="M65.9061 173.225L66.3254 173.446L66.6541 175.31L66.2348 175.094L65.9061 173.225Z" fill="#263238"/>
<path d="M68.014 176.024L68.4333 176.245L68.1047 174.38L67.7647 174.601L68.014 176.024Z" fill="#263238"/>
<path d="M57.8147 176.307C57.8546 176.57 57.8231 176.838 57.7234 177.085C57.6237 177.331 57.4595 177.546 57.248 177.707C56.8457 177.962 56.4491 177.752 56.3584 177.236C56.3178 176.974 56.349 176.705 56.4488 176.458C56.5486 176.212 56.7131 175.997 56.925 175.837C57.3274 175.582 57.724 175.791 57.8147 176.307Z" fill="#225ADC"/>
<path d="M58.4719 180.035C58.5125 180.298 58.4813 180.567 58.3816 180.813C58.2818 181.06 58.1172 181.275 57.9053 181.435C57.503 181.69 57.1064 181.48 57.0157 180.97C56.9745 180.708 57.0054 180.439 57.1052 180.192C57.205 179.946 57.3699 179.731 57.5823 179.571C57.9733 179.31 58.3813 179.52 58.4719 180.035Z" fill="#225ADC"/>
<path d="M59.5939 177.236C59.6351 177.499 59.6042 177.768 59.5044 178.015C59.4046 178.261 59.2396 178.476 59.0272 178.636C58.6306 178.896 58.2283 178.687 58.1376 178.171C58.0976 177.909 58.1292 177.64 58.2289 177.394C58.3286 177.147 58.4928 176.932 58.7043 176.772C59.1066 176.511 59.5032 176.721 59.5939 177.236Z" fill="#225ADC"/>
<path d="M56.6927 179.1C56.734 179.363 56.703 179.632 56.6032 179.879C56.5034 180.125 56.3385 180.34 56.1261 180.5C55.7295 180.761 55.3272 180.551 55.2365 180.035C55.1971 179.773 55.2289 179.504 55.3286 179.258C55.4283 179.012 55.5921 178.797 55.8031 178.636C56.2054 178.381 56.6021 178.585 56.6927 179.1Z" fill="#225ADC"/>
<path d="M71.7537 17.9566L65.6625 21.4697C65.6962 21.2029 65.7132 20.9341 65.7135 20.6651V18.9029C65.7135 15.7638 63.5093 14.4889 60.7951 16.0698C59.6217 16.7886 58.6199 17.7556 57.86 18.9029C57.4123 14.9365 54.3185 13.4859 50.5561 15.6561C46.4877 18.0076 43.1899 23.7193 43.1899 28.411V31.0514C43.164 32.1054 43.3771 33.1515 43.8132 34.1112L38.7532 37.0294C37.9586 37.5483 37.2972 38.247 36.8228 39.069C36.3483 39.891 36.074 40.8131 36.0221 41.7607C36.0221 43.5003 37.246 44.2086 38.7532 43.336L71.7537 24.2859C72.5484 23.767 73.2097 23.0682 73.6842 22.2463C74.1587 21.4243 74.433 20.5022 74.4849 19.5545C74.4849 17.7923 73.2723 17.084 71.7537 17.9566Z" fill="#225ADC"/>
<path d="M198.311 176.284L197.177 175.644L197.982 175.281C197.982 175.281 198.611 175.451 198.628 175.48C198.623 175.626 198.607 175.772 198.582 175.916L198.311 176.284Z" fill="#E0E0E0"/>
<path d="M198.311 176.284L197.177 175.644L197.982 175.281C197.982 175.281 198.611 175.451 198.628 175.48C198.623 175.626 198.607 175.772 198.582 175.916L198.311 176.284Z" fill="#225ADC"/>
<path opacity="0.1" d="M198.311 176.284L197.177 175.644L197.982 175.281C197.982 175.281 198.611 175.451 198.628 175.48C198.623 175.626 198.607 175.772 198.582 175.916L198.311 176.284Z" fill="white"/>
<path d="M156.142 197.527C156.644 197.782 157.199 197.914 157.762 197.914C158.326 197.914 158.881 197.782 159.383 197.527L195.727 176.562L141.33 145.148L140.061 144.417L103.717 165.382C102.828 165.898 102.828 166.742 103.717 167.252L156.142 197.527Z" fill="#225ADC"/>
<path opacity="0.8" d="M156.142 197.527C156.644 197.782 157.199 197.914 157.762 197.914C158.326 197.914 158.881 197.782 159.383 197.527L195.727 176.562L141.33 145.148L140.061 144.417L103.717 165.382C102.828 165.898 102.828 166.742 103.717 167.252L156.142 197.527Z" fill="white"/>
<path d="M169.792 157.886L182.468 165.178L190.672 160.441L200.197 165.96V172.822C200.197 173.655 199.262 174.839 198.922 174.647C198.294 174.799 197.682 175.015 197.098 175.293C196.145 175.835 195.26 176.489 194.463 177.242L165.338 160.43L169.792 157.886Z" fill="#E0E0E0"/>
<path d="M169.792 157.886L182.468 165.178L190.672 160.441L200.197 165.96V172.822C200.197 173.655 199.262 174.839 198.922 174.647C198.294 174.799 197.682 175.015 197.098 175.293C196.145 175.835 195.26 176.489 194.463 177.242L165.338 160.43L169.792 157.886Z" fill="#225ADC"/>
<path opacity="0.1" d="M169.792 157.886L182.468 165.178L190.672 160.441L200.197 165.96V172.822C200.197 173.655 199.262 174.839 198.922 174.647C198.294 174.799 197.682 175.015 197.098 175.293C196.145 175.835 195.26 176.489 194.463 177.242L165.338 160.43L169.792 157.886Z" fill="white"/>
<path d="M159.4 197.522L161.593 196.252L194.497 177.259C194.522 176.829 194.678 176.418 194.945 176.08C195.333 175.564 195.823 175.132 196.384 174.811C196.853 174.524 197.387 174.358 197.937 174.329C198.304 174.324 198.663 174.442 198.956 174.664C199.385 173.823 199.593 172.887 199.563 171.944H200.809C200.809 173.644 200.243 175.389 199.546 175.786L198.917 176.154C198.56 176.358 198.277 176.369 198.277 176.154V175.82C198.277 175.446 197.71 175.463 197.007 175.871C196.305 176.279 195.744 176.902 195.744 177.276V177.616C195.744 177.809 195.256 178.239 194.667 178.579L162.845 196.955L159.4 198.938C158.901 199.196 158.347 199.327 157.785 199.318V197.879C158.345 197.902 158.902 197.779 159.4 197.522Z" fill="#225ADC"/>
<path opacity="0.6" d="M159.4 197.522L161.593 196.252L194.497 177.259C194.522 176.829 194.678 176.418 194.945 176.08C195.333 175.564 195.823 175.132 196.384 174.811C196.853 174.524 197.387 174.358 197.937 174.329C198.304 174.324 198.663 174.442 198.956 174.664C199.385 173.823 199.593 172.887 199.563 171.944H200.809C200.809 173.644 200.243 175.389 199.546 175.786L198.917 176.154C198.56 176.358 198.277 176.369 198.277 176.154V175.82C198.277 175.446 197.71 175.463 197.007 175.871C196.305 176.279 195.744 176.902 195.744 177.276V177.616C195.744 177.809 195.256 178.239 194.667 178.579L162.845 196.955L159.4 198.938C158.901 199.196 158.347 199.327 157.785 199.318V197.879C158.345 197.902 158.902 197.779 159.4 197.522Z" fill="white"/>
<path d="M103.037 166.289V167.757C103.056 167.952 103.125 168.14 103.239 168.301C103.352 168.462 103.505 168.591 103.683 168.674L152.68 196.961L156.119 198.944C156.618 199.202 157.173 199.332 157.734 199.323V197.884C157.169 197.898 156.61 197.763 156.114 197.493L153.926 196.23L103.683 167.213C103.504 167.128 103.351 166.999 103.237 166.837C103.124 166.675 103.055 166.486 103.037 166.289Z" fill="#225ADC"/>
<path opacity="0.1" d="M103.037 166.289V167.757C103.056 167.952 103.125 168.14 103.239 168.301C103.352 168.462 103.505 168.591 103.683 168.674L152.68 196.961L156.119 198.944C156.618 199.202 157.173 199.332 157.734 199.323V197.884C157.169 197.898 156.61 197.763 156.114 197.493L153.926 196.23L103.683 167.213C103.504 167.128 103.351 166.999 103.237 166.837C103.124 166.675 103.055 166.486 103.037 166.289Z" fill="white"/>
<path d="M157.762 188.212V196.621C158.138 196.632 158.509 196.544 158.839 196.366L162.806 194.065L193.171 176.534V167.762L157.762 188.212Z" fill="white"/>
<path d="M104.618 158.577V165.042C104.638 165.417 104.746 165.781 104.933 166.106C105.12 166.431 105.381 166.707 105.695 166.912L152.725 194.054L156.692 196.354C157.022 196.532 157.393 196.62 157.768 196.609V189.102L104.618 158.577Z" fill="#225ADC"/>
<path d="M193.194 176.522C193.224 176.092 193.384 175.681 193.653 175.344C194.043 174.83 194.533 174.401 195.092 174.08C195.558 173.789 196.09 173.621 196.639 173.593C197.008 173.59 197.368 173.707 197.665 173.927V165.173L193.205 167.751L193.194 176.522Z" fill="#455A64"/>
<path d="M194.979 174.154C194.462 174.459 194.012 174.863 193.653 175.344C193.384 175.681 193.224 176.092 193.194 176.522V168.159H194.973L194.979 174.154Z" fill="#102A67"/>
<path d="M141.319 134.858L195.715 166.272V167.003C195.715 167.405 196.282 167.57 196.979 167.15C197.676 166.731 198.248 166.244 198.248 165.547L198.316 164.855L142.883 132.852L142.662 132.722C142.604 132.824 142.571 132.939 142.565 133.056V133.396C142.577 133.815 142.016 134.467 141.319 134.858Z" fill="#225ADC"/>
<path opacity="0.6" d="M141.319 134.858L195.715 166.272V167.003C195.715 167.405 196.282 167.57 196.979 167.15C197.676 166.731 198.248 166.244 198.248 165.547L198.316 164.855L142.883 132.852L142.662 132.722C142.604 132.824 142.571 132.939 142.565 133.056V133.396C142.577 133.815 142.016 134.467 141.319 134.858Z" fill="white"/>
<path d="M159.4 187.277L194.939 166.754C195.387 166.521 195.8 166.329 195.976 166.419L195.744 166.289L141.347 134.875L140.713 134.507C140.427 134.426 140.128 134.406 139.835 134.45C139.542 134.494 139.262 134.6 139.013 134.762L103.751 155.126C102.862 155.642 102.862 156.481 103.751 156.996L156.187 187.277C156.686 187.527 157.236 187.657 157.794 187.657C158.351 187.657 158.901 187.527 159.4 187.277Z" fill="#225ADC"/>
<path opacity="0.8" d="M159.4 187.277L194.939 166.754C195.387 166.521 195.8 166.329 195.976 166.419L195.744 166.289L141.347 134.875L140.713 134.507C140.427 134.426 140.128 134.406 139.835 134.45C139.542 134.494 139.262 134.6 139.013 134.762L103.751 155.126C102.862 155.642 102.862 156.481 103.751 156.996L156.187 187.277C156.686 187.527 157.236 187.657 157.794 187.657C158.351 187.657 158.901 187.527 159.4 187.277Z" fill="white"/>
<path d="M142.673 132.739L142.894 132.869L198.328 164.889C198.356 164.83 198.396 164.778 198.447 164.736L198.634 164.629L199.036 164.402L199.529 164.113C199.624 164.05 199.739 164.021 199.853 164.031C199.968 164.041 200.075 164.09 200.158 164.17C200.181 164.185 200.202 164.205 200.22 164.226C200.287 164.295 200.342 164.373 200.384 164.459C200.445 164.557 200.494 164.661 200.532 164.77C200.575 164.887 200.611 165.006 200.639 165.127C200.673 165.269 200.696 165.405 200.724 165.552C200.74 165.637 200.749 165.722 200.753 165.807C200.753 165.875 200.753 165.938 200.753 166.017C200.753 166.096 200.753 166.334 200.753 166.499V164.94C200.694 164.428 200.517 163.937 200.236 163.505C199.955 163.074 199.577 162.713 199.132 162.453L146.691 132.172C146.259 131.917 145.773 131.766 145.273 131.729C144.773 131.693 144.271 131.773 143.806 131.963L143.143 132.348L142.86 132.507C142.778 132.566 142.714 132.646 142.673 132.739Z" fill="#225ADC"/>
<path opacity="0.8" d="M142.673 132.739L142.894 132.869L198.328 164.889C198.356 164.83 198.396 164.778 198.447 164.736L198.634 164.629L199.036 164.402L199.529 164.113C199.624 164.05 199.739 164.021 199.853 164.031C199.968 164.041 200.075 164.09 200.158 164.17C200.181 164.185 200.202 164.205 200.22 164.226C200.287 164.295 200.342 164.373 200.384 164.459C200.445 164.557 200.494 164.661 200.532 164.77C200.575 164.887 200.611 165.006 200.639 165.127C200.673 165.269 200.696 165.405 200.724 165.552C200.74 165.637 200.749 165.722 200.753 165.807C200.753 165.875 200.753 165.938 200.753 166.017C200.753 166.096 200.753 166.334 200.753 166.499V164.94C200.694 164.428 200.517 163.937 200.236 163.505C199.955 163.074 199.577 162.713 199.132 162.453L146.691 132.172C146.259 131.917 145.773 131.766 145.273 131.729C144.773 131.693 144.271 131.773 143.806 131.963L143.143 132.348L142.86 132.507C142.778 132.566 142.714 132.646 142.673 132.739Z" fill="white"/>
<path d="M159.4 187.283L161.599 186.008L186.876 171.423L194.945 166.765C195.511 166.425 195.987 166.306 196.016 166.482V166.844C196.016 167.252 196.582 167.252 197.279 166.844C197.538 166.732 197.764 166.557 197.938 166.336C198.112 166.114 198.228 165.853 198.276 165.575V165.178C198.268 165.09 198.281 165.001 198.313 164.918C198.346 164.835 198.397 164.762 198.463 164.702L198.65 164.595L199.053 164.368L199.546 164.079C199.641 164.016 199.756 163.987 199.87 163.997C199.985 164.007 200.092 164.056 200.175 164.136C200.198 164.151 200.219 164.171 200.237 164.192C200.279 164.237 200.315 164.286 200.345 164.34C200.369 164.364 200.388 164.393 200.401 164.425C200.462 164.523 200.511 164.627 200.549 164.736C200.592 164.853 200.628 164.972 200.656 165.093C200.69 165.235 200.713 165.371 200.741 165.518C200.757 165.603 200.766 165.688 200.77 165.773C200.77 165.841 200.77 165.904 200.77 165.983C200.77 166.062 200.77 166.3 200.77 166.465V171.927H199.523V166.465C199.523 166.334 199.523 166.204 199.523 166.079L199.489 165.768C199.492 165.758 199.492 165.749 199.489 165.739C199.376 166.731 198.429 167.615 197.608 168.08C197.152 168.367 196.628 168.531 196.089 168.555C195.674 168.561 195.271 168.414 194.956 168.142L194.843 168.204L194.627 168.335L162.805 186.71L159.4 188.716C158.909 188.967 158.365 189.094 157.813 189.085V187.645C158.364 187.657 158.909 187.532 159.4 187.283Z" fill="#225ADC"/>
<path opacity="0.6" d="M159.4 187.283L161.599 186.008L186.876 171.423L194.945 166.765C195.511 166.425 195.987 166.306 196.016 166.482V166.844C196.016 167.252 196.582 167.252 197.279 166.844C197.538 166.732 197.764 166.557 197.938 166.336C198.112 166.114 198.228 165.853 198.276 165.575V165.178C198.268 165.09 198.281 165.001 198.313 164.918C198.346 164.835 198.397 164.762 198.463 164.702L198.65 164.595L199.053 164.368L199.546 164.079C199.641 164.016 199.756 163.987 199.87 163.997C199.985 164.007 200.092 164.056 200.175 164.136C200.198 164.151 200.219 164.171 200.237 164.192C200.279 164.237 200.315 164.286 200.345 164.34C200.369 164.364 200.388 164.393 200.401 164.425C200.462 164.523 200.511 164.627 200.549 164.736C200.592 164.853 200.628 164.972 200.656 165.093C200.69 165.235 200.713 165.371 200.741 165.518C200.757 165.603 200.766 165.688 200.77 165.773C200.77 165.841 200.77 165.904 200.77 165.983C200.77 166.062 200.77 166.3 200.77 166.465V171.927H199.523V166.465C199.523 166.334 199.523 166.204 199.523 166.079L199.489 165.768C199.492 165.758 199.492 165.749 199.489 165.739C199.376 166.731 198.429 167.615 197.608 168.08C197.152 168.367 196.628 168.531 196.089 168.555C195.674 168.561 195.271 168.414 194.956 168.142L194.843 168.204L194.627 168.335L162.805 186.71L159.4 188.716C158.909 188.967 158.365 189.094 157.813 189.085V187.645C158.364 187.657 158.909 187.532 159.4 187.283Z" fill="white"/>
<path d="M103.037 156.044V157.523C103.055 157.72 103.124 157.909 103.237 158.071C103.351 158.233 103.504 158.363 103.683 158.447L152.68 186.733L156.119 188.722C156.618 188.98 157.173 189.11 157.734 189.102V187.662C157.17 187.675 156.612 187.542 156.114 187.277L153.926 186.013L103.683 156.996C103.501 156.91 103.344 156.776 103.231 156.608C103.117 156.441 103.05 156.246 103.037 156.044Z" fill="#225ADC"/>
<path opacity="0.1" d="M103.037 156.044V157.523C103.055 157.72 103.124 157.909 103.237 158.071C103.351 158.233 103.504 158.363 103.683 158.447L152.68 186.733L156.119 188.722C156.618 188.98 157.173 189.11 157.734 189.102V187.662C157.17 187.675 156.612 187.542 156.114 187.277L153.926 186.013L103.683 156.996C103.501 156.91 103.344 156.776 103.231 156.608C103.117 156.441 103.05 156.246 103.037 156.044Z" fill="white"/>
<path d="M138.967 134.762C139.216 134.6 139.497 134.494 139.79 134.45C140.083 134.406 140.382 134.426 140.667 134.507L141.302 134.875C141.999 134.467 142.56 133.815 142.56 133.413V133.073C142.565 132.956 142.598 132.841 142.656 132.739C142.701 132.647 142.769 132.568 142.854 132.512L143.138 132.354L143.801 131.968C144.265 131.778 144.767 131.698 145.267 131.735C145.768 131.771 146.253 131.923 146.685 132.178L199.126 162.459L199.183 162.493L162.177 183.86C161.842 184.031 161.472 184.12 161.097 184.12C160.722 184.12 160.352 184.031 160.018 183.86L107.236 153.087L138.967 134.762Z" fill="#263238"/>
<path d="M165.14 180.755L163.74 179.95C164.117 179.819 164.522 179.79 164.913 179.865C165.287 180.058 165.14 180.755 165.14 180.755Z" fill="#225ADC"/>
<path opacity="0.7" d="M165.14 180.755L163.74 179.95C164.117 179.819 164.522 179.79 164.913 179.865C165.287 180.058 165.14 180.755 165.14 180.755Z" fill="black"/>
<path d="M166.103 179.888C165.944 179.716 165.751 179.578 165.536 179.484C165.321 179.389 165.089 179.341 164.854 179.341C164.619 179.341 164.387 179.389 164.172 179.484C163.957 179.578 163.764 179.716 163.604 179.888C162.239 181.14 162.171 182.381 161.604 182.364C161.038 182.347 161.038 172.363 161.038 172.363L166.426 177.355L166.103 179.888Z" fill="#225ADC"/>
<path opacity="0.7" d="M166.103 179.888C165.944 179.716 165.751 179.578 165.536 179.484C165.321 179.389 165.089 179.341 164.854 179.341C164.619 179.341 164.387 179.389 164.172 179.484C163.957 179.578 163.764 179.716 163.604 179.888C162.239 181.14 162.171 182.381 161.604 182.364C161.038 182.347 161.038 172.363 161.038 172.363L166.426 177.355L166.103 179.888Z" fill="black"/>
<path d="M109.769 143.595L109.678 143.544L110.54 143.046L147.642 121.627L201.705 156.611C202.594 157.127 202.753 157.875 202.056 158.271L200.792 159.002L166.115 179.055L165.865 178.874L109.769 143.595Z" fill="#225ADC"/>
<path opacity="0.5" d="M109.769 143.595L109.678 143.544L110.54 143.046L147.642 121.627L201.705 156.611C202.594 157.127 202.753 157.875 202.056 158.271L200.792 159.002L166.115 179.055L165.865 178.874L109.769 143.595Z" fill="black"/>
<path d="M161.485 167.638L164.171 167.071V177.837C162.551 178.528 161.519 179.174 161.338 180.528L161.485 167.638Z" fill="#455A64"/>
<path d="M165.355 177.979L199.71 158.147C200.025 157.942 200.287 157.666 200.475 157.341C200.663 157.016 200.772 156.651 200.792 156.277V145.675L166.103 165.875C166.103 165.875 165.69 167.377 164.46 167.847C163.23 168.318 164.171 168.799 164.171 168.799V177.865C165.231 177.712 165.355 177.979 165.355 177.979Z" fill="#225ADC"/>
<path d="M162.188 167.269C162.545 167.065 162.828 167.054 162.828 167.269V167.604C162.828 167.978 163.395 167.961 164.097 167.553C164.8 167.145 165.367 166.521 165.367 166.147V165.807C165.367 165.615 165.848 165.184 166.438 164.844L110.545 132.818L109.678 133.317C109.558 133.444 109.483 133.607 109.463 133.781V134.121C109.463 134.495 108.896 135.124 108.199 135.527C107.502 135.929 106.93 135.952 106.93 135.578V135.238C106.93 135.045 106.647 135.062 106.296 135.266L162.188 167.269Z" fill="#225ADC"/>
<path opacity="0.6" d="M162.188 167.269C162.545 167.065 162.828 167.054 162.828 167.269V167.604C162.828 167.978 163.395 167.961 164.097 167.553C164.8 167.145 165.367 166.521 165.367 166.147V165.807C165.367 165.615 165.848 165.184 166.438 164.844L110.545 132.818L109.678 133.317C109.558 133.444 109.483 133.607 109.463 133.781V134.121C109.463 134.495 108.896 135.124 108.199 135.527C107.502 135.929 106.93 135.952 106.93 135.578V135.238C106.93 135.045 106.647 135.062 106.296 135.266L162.188 167.269Z" fill="black"/>
<path d="M109.769 133.345L109.678 133.294L110.54 132.795L147.642 111.377L201.705 142.598C202.594 143.114 202.753 143.856 202.056 144.258L200.792 144.984L166.103 165.875L109.769 133.345Z" fill="#225ADC"/>
<path opacity="0.5" d="M109.769 133.345L109.678 133.294L110.54 132.795L147.642 111.377L201.705 142.598C202.594 143.114 202.753 143.856 202.056 144.258L200.792 144.984L166.103 165.875L109.769 133.345Z" fill="black"/>
<path d="M106.919 134.892L162.8 167.156L160.845 168.686L105.174 136.547C105.309 136.133 105.568 135.771 105.916 135.51L106.919 134.892Z" fill="#225ADC"/>
<path opacity="0.5" d="M106.919 134.892L162.8 167.156L160.845 168.686L105.174 136.547C105.309 136.133 105.568 135.771 105.916 135.51L106.919 134.892Z" fill="black"/>
<path d="M105.361 150.967C105.326 150.946 105.294 150.921 105.264 150.894C105.239 150.881 105.217 150.861 105.202 150.837C105.156 150.792 105.118 150.741 105.089 150.684C105.064 150.663 105.044 150.635 105.032 150.605C104.971 150.507 104.924 150.403 104.89 150.293C104.843 150.175 104.805 150.054 104.777 149.93C104.743 149.794 104.72 149.658 104.698 149.511C104.678 149.427 104.667 149.342 104.664 149.256V149.046C104.664 148.893 104.664 148.729 104.664 148.565V139.334C104.653 138.365 104.83 137.403 105.185 136.501L160.856 168.64L161.089 183.101L105.423 150.95L105.361 150.967Z" fill="#225ADC"/>
<path opacity="0.7" d="M105.361 150.967C105.326 150.946 105.294 150.921 105.264 150.894C105.239 150.881 105.217 150.861 105.202 150.837C105.156 150.792 105.118 150.741 105.089 150.684C105.064 150.663 105.044 150.635 105.032 150.605C104.971 150.507 104.924 150.403 104.89 150.293C104.843 150.175 104.805 150.054 104.777 149.93C104.743 149.794 104.72 149.658 104.698 149.511C104.678 149.427 104.667 149.342 104.664 149.256V149.046C104.664 148.893 104.664 148.729 104.664 148.565V139.334C104.653 138.365 104.83 137.403 105.185 136.501L160.856 168.64L161.089 183.101L105.423 150.95L105.361 150.967Z" fill="black"/>
<path opacity="0.79" d="M160.817 168.663C160.817 168.663 116.971 148.146 112.982 146.264C110.347 145.023 109.055 147.63 109.678 150.327C110.245 152.684 112.551 155.115 112.551 155.115L105.383 150.973C105.349 150.952 105.317 150.927 105.287 150.899C105.261 150.887 105.24 150.867 105.225 150.843C105.179 150.798 105.141 150.746 105.111 150.69C105.086 150.668 105.067 150.641 105.055 150.61C104.994 150.513 104.946 150.408 104.913 150.299C104.866 150.181 104.828 150.06 104.8 149.936C104.766 149.8 104.743 149.664 104.72 149.517C104.701 149.433 104.689 149.348 104.686 149.262V149.052C104.686 148.899 104.686 148.735 104.686 148.57V139.334C104.676 138.365 104.853 137.403 105.208 136.501L160.817 168.663Z" fill="#263238"/>
<path d="M160.301 171.479H161.548C161.518 170.537 161.725 169.602 162.148 168.759C162.445 168.979 162.805 169.097 163.174 169.094C163.723 169.066 164.255 168.898 164.721 168.607C165.281 168.288 165.771 167.858 166.16 167.343C166.19 167.307 166.216 167.27 166.239 167.23C166.459 166.916 166.587 166.547 166.608 166.164L199.512 147.171L200.645 146.519L202.073 145.698C202.197 145.641 202.304 145.551 202.38 145.438C202.457 145.326 202.502 145.194 202.509 145.057V143.601C202.503 143.74 202.459 143.875 202.382 143.99C202.305 144.106 202.198 144.199 202.073 144.258L198.294 146.434L166.477 164.81C165.882 165.15 165.401 165.581 165.401 165.773V166.113C165.365 166.329 165.262 166.527 165.106 166.68C164.833 167.008 164.503 167.285 164.131 167.496C163.429 167.904 162.862 167.921 162.862 167.547V167.213C162.862 167.014 162.584 167.031 162.228 167.213L161.599 167.581C160.868 168.034 160.301 169.762 160.301 171.479Z" fill="#225ADC"/>
<path d="M161.548 171.479V180.71C161.548 180.84 161.548 180.97 161.548 181.095L161.576 181.407C161.573 181.416 161.573 181.426 161.576 181.435C161.689 180.443 162.636 179.559 163.457 179.095C163.915 178.806 164.441 178.642 164.981 178.619C165.397 178.614 165.8 178.761 166.115 179.032L166.222 178.97L166.443 178.84L198.26 160.464L200.09 159.41L200.611 159.104L202.152 158.215C202.254 158.151 202.338 158.064 202.397 157.96C202.456 157.856 202.489 157.739 202.492 157.62V159.076C202.488 159.189 202.457 159.299 202.402 159.397C202.347 159.496 202.269 159.58 202.175 159.642C201.994 159.75 201.801 159.852 201.608 159.971L201.251 160.181L200.639 160.532C200.503 160.617 200.379 160.691 200.26 160.753C200.141 160.815 200.073 160.866 199.993 160.906L199.523 161.184L174.246 175.769L166.177 180.426C165.61 180.766 165.14 180.885 165.106 180.71C165.104 180.689 165.104 180.668 165.106 180.647V180.324C165.106 179.916 164.539 179.916 163.842 180.324C163.584 180.437 163.358 180.612 163.184 180.833C163.009 181.055 162.893 181.316 162.845 181.594V181.99C162.853 182.079 162.841 182.168 162.808 182.251C162.776 182.333 162.724 182.407 162.658 182.466L162.471 182.574L162.075 182.801L161.582 183.09C161.486 183.153 161.371 183.182 161.257 183.172C161.143 183.162 161.035 183.113 160.953 183.033C160.927 183.02 160.905 183.001 160.89 182.976C160.845 182.934 160.806 182.884 160.777 182.829C160.755 182.805 160.736 182.778 160.72 182.75C160.66 182.652 160.612 182.548 160.579 182.438C160.531 182.322 160.493 182.203 160.465 182.081C160.431 181.939 160.409 181.803 160.386 181.656C160.366 181.572 160.355 181.487 160.352 181.401C160.352 181.333 160.352 181.271 160.352 181.191C160.352 181.112 160.352 180.874 160.352 180.71V171.479H161.548Z" fill="#225ADC"/>
<g opacity="0.6">
<path opacity="0.6" d="M160.301 171.479H161.548C161.518 170.537 161.725 169.602 162.148 168.759C162.445 168.979 162.805 169.097 163.174 169.094C163.723 169.066 164.255 168.898 164.721 168.607C165.281 168.288 165.771 167.858 166.16 167.343C166.19 167.307 166.216 167.27 166.239 167.23C166.459 166.916 166.587 166.547 166.608 166.164L199.512 147.171L200.645 146.519L202.073 145.698C202.197 145.641 202.304 145.551 202.38 145.438C202.457 145.326 202.502 145.194 202.509 145.057V143.601C202.503 143.74 202.459 143.875 202.382 143.99C202.305 144.106 202.198 144.199 202.073 144.258L198.294 146.434L166.477 164.81C165.882 165.15 165.401 165.581 165.401 165.773V166.113C165.365 166.329 165.262 166.527 165.106 166.68C164.833 167.008 164.503 167.285 164.131 167.496C163.429 167.904 162.862 167.921 162.862 167.547V167.213C162.862 167.014 162.584 167.031 162.228 167.213L161.599 167.581C160.868 168.034 160.301 169.762 160.301 171.479Z" fill="black"/>
<path opacity="0.6" d="M161.548 171.479V180.71C161.548 180.84 161.548 180.97 161.548 181.095L161.576 181.407C161.573 181.416 161.573 181.426 161.576 181.435C161.689 180.443 162.635 179.559 163.457 179.095C163.915 178.806 164.44 178.642 164.981 178.619C165.397 178.614 165.8 178.761 166.115 179.032L166.222 178.97L166.443 178.84L198.259 160.464L200.09 159.41L200.611 159.104L202.152 158.214C202.254 158.151 202.338 158.064 202.397 157.96C202.456 157.856 202.489 157.739 202.492 157.62V159.076C202.488 159.189 202.457 159.299 202.402 159.397C202.347 159.496 202.269 159.58 202.175 159.642C201.994 159.75 201.801 159.852 201.608 159.971L201.251 160.181L200.639 160.532C200.503 160.617 200.379 160.691 200.26 160.753C200.141 160.815 200.073 160.866 199.993 160.906L199.523 161.184L174.246 175.769L166.177 180.426C165.61 180.766 165.14 180.885 165.106 180.71C165.104 180.689 165.104 180.668 165.106 180.647V180.324C165.106 179.916 164.539 179.916 163.842 180.324C163.584 180.437 163.358 180.612 163.183 180.833C163.009 181.055 162.893 181.316 162.845 181.594V181.99C162.853 182.079 162.841 182.168 162.808 182.251C162.776 182.333 162.724 182.407 162.658 182.466L162.471 182.574L162.075 182.801L161.582 183.09C161.486 183.153 161.371 183.182 161.257 183.172C161.143 183.162 161.035 183.113 160.953 183.033C160.927 183.02 160.905 183.001 160.89 182.976C160.845 182.934 160.806 182.884 160.777 182.829C160.755 182.805 160.736 182.778 160.72 182.75C160.66 182.652 160.612 182.548 160.579 182.438C160.531 182.322 160.493 182.203 160.465 182.081C160.431 181.939 160.409 181.803 160.386 181.656C160.366 181.572 160.355 181.487 160.352 181.401C160.352 181.333 160.352 181.271 160.352 181.191C160.352 181.112 160.352 180.874 160.352 180.71V171.479H161.548Z" fill="black"/>
</g>
<path d="M105.145 136.518L158.057 167.071L198.05 143.981C198.181 143.937 198.294 143.853 198.375 143.741C198.455 143.63 198.499 143.495 198.499 143.357C198.499 143.22 198.455 143.085 198.375 142.973C198.294 142.862 198.181 142.778 198.05 142.734L145.693 112.499L110.562 132.795L109.695 133.3C109.578 133.426 109.505 133.587 109.486 133.759V134.099C109.486 134.473 108.919 135.102 108.222 135.504C108.187 135.527 108.149 135.546 108.109 135.561L106.941 134.886L106.375 135.204L106.296 135.243L105.888 135.481C105.541 135.744 105.282 136.105 105.145 136.518Z" fill="#263238"/>
<path d="M195.098 144.207L193.505 143.357L194.956 143.012C195.095 143.175 195.183 143.375 195.208 143.588C195.234 143.801 195.195 144.017 195.098 144.207Z" fill="#E0E0E0"/>
<g style="mix-blend-mode:multiply" opacity="0.5">
<path d="M195.098 144.207L193.505 143.357L194.956 143.012C195.095 143.175 195.183 143.375 195.208 143.588C195.234 143.801 195.195 144.017 195.098 144.207Z" fill="#E0E0E0"/>
</g>
<path d="M152.901 165.456C153.402 165.71 153.956 165.843 154.519 165.843C155.081 165.843 155.635 165.71 156.136 165.456L192.48 144.491L138.083 110.102L136.809 109.365L100.471 133.3C99.5809 133.815 99.5809 134.654 100.471 135.17L152.901 165.456Z" fill="#225ADC"/>
<path d="M166.545 122.828L194.004 141.437L179.221 130.104L187.426 125.367L196.968 130.892V140.745C196.968 141.584 196.033 142.768 195.693 142.576C195.064 142.728 194.452 142.944 193.868 143.221C192.915 143.763 192.03 144.418 191.233 145.171L162.114 125.378L166.545 122.828Z" fill="#225ADC"/>
<path opacity="0.2" d="M166.545 122.828L194.004 141.437L179.221 130.104L187.426 125.367L196.968 130.892V140.745C196.968 141.584 196.033 142.768 195.693 142.576C195.064 142.728 194.452 142.944 193.868 143.221C192.915 143.763 192.03 144.418 191.233 145.171L162.114 125.378L166.545 122.828Z" fill="black"/>
<path d="M154.516 153.155V164.532C154.892 164.541 155.265 164.453 155.598 164.277L159.564 161.977L189.936 144.445V132.693L154.516 153.155Z" fill="white"/>
<path d="M101.371 123.525V132.971C101.392 133.345 101.501 133.709 101.687 134.034C101.874 134.359 102.135 134.635 102.448 134.841L149.478 161.983L153.445 164.283C153.776 164.458 154.147 164.546 154.521 164.538V154.044L101.371 123.525Z" fill="#225ADC"/>
<path d="M189.953 144.445C189.981 144.016 190.139 143.604 190.406 143.267C190.793 142.751 191.283 142.32 191.845 142.003C192.313 141.712 192.847 141.544 193.398 141.516C193.755 141.48 194.114 141.563 194.418 141.754V130.115L189.958 132.693L189.953 144.445Z" fill="#455A64"/>
<path d="M191.732 142.071C191.218 142.382 190.768 142.788 190.406 143.267C190.139 143.604 189.981 144.016 189.953 144.445V133.113H191.726L191.732 142.071Z" fill="#102A67"/>
<path d="M138.078 99.8176L192.474 131.237V131.963C192.474 132.371 193.041 132.529 193.738 132.116C194.435 131.702 195.013 131.203 195.013 130.506L195.081 129.815L139.647 97.8118L139.421 97.6814C139.364 97.7859 139.333 97.9025 139.33 98.0214V98.3557C139.336 98.758 138.775 99.4097 138.078 99.8176Z" fill="#225ADC"/>
<path opacity="0.2" d="M138.078 99.8176L192.474 131.237V131.963C192.474 132.371 193.041 132.529 193.738 132.116C194.435 131.702 195.013 131.203 195.013 130.506L195.081 129.815L139.647 97.8118L139.421 97.6814C139.364 97.7859 139.333 97.9025 139.33 98.0214V98.3557C139.336 98.758 138.775 99.4097 138.078 99.8176Z" fill="black"/>
<path d="M156.136 152.22L191.698 131.702C192.151 131.464 192.565 131.271 192.735 131.362L192.503 131.237L138.106 99.8176L137.466 99.455C137.181 99.3705 136.881 99.3495 136.588 99.3935C136.294 99.4376 136.013 99.5456 135.766 99.71L100.471 120.069C99.5809 120.585 99.5809 121.429 100.471 121.939L152.912 152.22C153.412 152.472 153.964 152.604 154.524 152.604C155.084 152.604 155.636 152.472 156.136 152.22Z" fill="#225ADC"/>
<path d="M139.426 97.6814L139.653 97.8118L195.098 129.815C195.126 129.756 195.166 129.704 195.217 129.662L195.404 129.56L195.8 129.328L196.293 129.039C196.389 128.976 196.504 128.948 196.618 128.958C196.732 128.968 196.839 129.017 196.922 129.095C196.946 129.111 196.967 129.13 196.985 129.152C197.05 129.223 197.107 129.301 197.155 129.384C197.213 129.483 197.261 129.587 197.296 129.696C197.341 129.815 197.379 129.936 197.41 130.059C197.438 130.195 197.466 130.331 197.489 130.478C197.506 130.564 197.518 130.651 197.523 130.739V130.943C197.523 131.096 197.523 131.26 197.523 131.43V129.872C197.466 129.358 197.29 128.866 197.008 128.433C196.727 128 196.348 127.639 195.902 127.379L143.461 97.0978C143.028 96.8433 142.543 96.6924 142.043 96.6571C141.542 96.6217 141.04 96.7027 140.577 96.8938L139.914 97.2791L139.636 97.4435C139.545 97.5012 139.472 97.5838 139.426 97.6814Z" fill="#225ADC"/>
<path d="M156.136 165.456L158.329 164.187L191.233 145.188C191.262 144.758 191.42 144.347 191.687 144.009C192.076 143.495 192.565 143.065 193.126 142.746C193.593 142.458 194.125 142.293 194.673 142.264C195.043 142.256 195.404 142.374 195.698 142.598C196.121 141.753 196.327 140.817 196.299 139.873H197.546C197.546 141.573 196.979 143.318 196.282 143.72L195.653 144.088C195.296 144.292 195.018 144.304 195.018 144.088V143.754C195.018 143.38 194.452 143.397 193.743 143.799C193.035 144.202 192.48 144.836 192.48 145.21V145.545C192.48 145.737 191.998 146.168 191.403 146.514L159.581 164.889L156.136 166.878C155.638 167.136 155.083 167.267 154.521 167.258V165.819C155.082 165.838 155.638 165.713 156.136 165.456Z" fill="#225ADC"/>
<path opacity="0.4" d="M156.136 165.456L158.329 164.187L191.233 145.188C191.262 144.758 191.42 144.347 191.687 144.009C192.076 143.495 192.565 143.065 193.126 142.746C193.593 142.458 194.125 142.293 194.673 142.264C195.043 142.256 195.404 142.374 195.698 142.598C196.121 141.753 196.327 140.817 196.299 139.873H197.546C197.546 141.573 196.979 143.318 196.282 143.72L195.653 144.088C195.296 144.292 195.018 144.304 195.018 144.088V143.754C195.018 143.38 194.452 143.397 193.743 143.799C193.035 144.202 192.48 144.836 192.48 145.21V145.545C192.48 145.737 191.998 146.168 191.403 146.514L159.581 164.889L156.136 166.878C155.638 167.136 155.083 167.267 154.521 167.258V165.819C155.082 165.838 155.638 165.713 156.136 165.456Z" fill="black"/>
<path d="M156.125 152.225L158.318 150.956L183.595 136.371L191.698 131.702C192.265 131.368 192.741 131.249 192.775 131.424V131.793C192.775 132.195 193.341 132.195 194.038 131.793C194.297 131.68 194.524 131.504 194.698 131.281C194.872 131.059 194.988 130.796 195.035 130.518V130.121C195.027 130.033 195.04 129.943 195.072 129.861C195.105 129.778 195.156 129.704 195.222 129.645L195.409 129.543L195.806 129.311L196.299 129.022C196.395 128.959 196.509 128.931 196.623 128.941C196.737 128.951 196.845 129 196.928 129.078C196.951 129.094 196.972 129.113 196.99 129.135C197.034 129.181 197.072 129.233 197.104 129.288C197.125 129.313 197.144 129.339 197.16 129.367C197.219 129.466 197.266 129.57 197.302 129.679C197.346 129.798 197.384 129.919 197.415 130.042C197.444 130.178 197.472 130.314 197.495 130.461C197.512 130.547 197.523 130.634 197.529 130.722V130.926C197.529 131.079 197.529 131.243 197.529 131.413V139.844H196.282V131.458C196.282 131.328 196.282 131.192 196.282 131.067L196.254 130.756C196.14 131.747 195.194 132.631 194.367 133.096C193.911 133.385 193.387 133.55 192.848 133.572C192.433 133.577 192.029 133.43 191.715 133.158L191.607 133.22L191.386 133.351L159.564 151.727L156.119 153.715C155.627 153.967 155.08 154.094 154.527 154.084V152.645C155.086 152.641 155.636 152.496 156.125 152.225Z" fill="#225ADC"/>
<path opacity="0.4" d="M156.125 152.225L158.318 150.956L183.595 136.371L191.698 131.702C192.265 131.368 192.741 131.249 192.775 131.424V131.793C192.775 132.195 193.341 132.195 194.038 131.793C194.297 131.68 194.524 131.504 194.698 131.281C194.872 131.059 194.988 130.796 195.035 130.518V130.121C195.027 130.033 195.04 129.943 195.072 129.861C195.105 129.778 195.156 129.704 195.222 129.645L195.409 129.543L195.806 129.311L196.299 129.022C196.395 128.959 196.509 128.931 196.623 128.941C196.737 128.951 196.845 129 196.928 129.078C196.951 129.094 196.972 129.113 196.99 129.135C197.034 129.181 197.072 129.233 197.104 129.288C197.125 129.313 197.144 129.339 197.16 129.367C197.219 129.466 197.266 129.57 197.302 129.679C197.346 129.798 197.384 129.919 197.415 130.042C197.444 130.178 197.472 130.314 197.495 130.461C197.512 130.547 197.523 130.634 197.529 130.722V130.926C197.529 131.079 197.529 131.243 197.529 131.413V139.844H196.282V131.458C196.282 131.328 196.282 131.192 196.282 131.067L196.254 130.756C196.14 131.747 195.194 132.631 194.367 133.096C193.911 133.385 193.387 133.55 192.848 133.572C192.433 133.577 192.029 133.43 191.715 133.158L191.607 133.22L191.386 133.351L159.564 151.727L156.119 153.715C155.627 153.967 155.08 154.094 154.527 154.084V152.645C155.086 152.641 155.636 152.496 156.125 152.225Z" fill="black"/>
<path d="M99.7963 120.987V122.449C99.8135 122.645 99.8816 122.834 99.9939 122.996C100.106 123.158 100.259 123.287 100.437 123.372L149.439 151.659L152.878 153.647C153.375 153.905 153.928 154.035 154.487 154.027V152.588C153.925 152.6 153.369 152.468 152.872 152.203L150.685 150.939L100.471 121.939C100.28 121.859 100.116 121.728 99.9967 121.56C99.8775 121.391 99.808 121.193 99.7963 120.987Z" fill="#225ADC"/>
<path opacity="0.2" d="M99.7963 120.987V122.449C99.8135 122.645 99.8816 122.834 99.9939 122.996C100.106 123.158 100.259 123.287 100.437 123.372L149.439 151.659L152.878 153.647C153.375 153.905 153.928 154.035 154.487 154.027V152.588C153.925 152.6 153.369 152.468 152.872 152.203L150.685 150.939L100.471 121.939C100.28 121.859 100.116 121.728 99.9967 121.56C99.8775 121.391 99.808 121.193 99.7963 120.987Z" fill="black"/>
<path d="M99.7963 134.212V135.674C99.8135 135.87 99.8816 136.059 99.9939 136.221C100.106 136.383 100.259 136.513 100.437 136.598L149.461 164.889L152.901 166.878C153.398 167.135 153.951 167.266 154.51 167.258V165.819C153.948 165.831 153.391 165.698 152.895 165.433L150.708 164.17L100.471 135.164C100.28 135.085 100.116 134.953 99.9967 134.785C99.8775 134.617 99.808 134.418 99.7963 134.212Z" fill="#225ADC"/>
<path opacity="0.2" d="M99.7963 134.212V135.674C99.8135 135.87 99.8816 136.059 99.9939 136.221C100.106 136.383 100.259 136.513 100.437 136.598L149.461 164.889L152.901 166.878C153.398 167.135 153.951 167.266 154.51 167.258V165.819C153.948 165.831 153.391 165.698 152.895 165.433L150.708 164.17L100.471 135.164C100.28 135.085 100.116 134.953 99.9967 134.785C99.8775 134.617 99.808 134.418 99.7963 134.212Z" fill="black"/>
<path d="M122.427 82.8017L117.226 92.0718L124.807 96.1062L130.326 87.8901L122.427 82.8017Z" fill="#FFA8A7"/>
<path d="M140.883 61.9214C137.993 61.4285 133.618 61.2981 130.774 66.1768C127.929 71.0555 121.798 83.0964 121.798 83.0964C121.798 83.0964 125.38 87.7314 130.564 88.5757L139.035 75.1353L140.883 61.9214Z" fill="#225ADC"/>
<path d="M134.055 175.451H127.584V186.529H134.055V175.451Z" fill="#FFA8A7"/>
<path d="M115.322 172.754L108.851 172.975L108.528 161.252L114.993 161.031L115.322 172.754Z" fill="#FFA8A7"/>
<path d="M127.584 183.333V182.41C126.966 182.676 125.527 188.167 122.96 190.507C120.92 192.371 118.138 194.518 117.43 196.592C116.693 198.751 121.306 199.947 123.209 199.607C125.425 199.216 129.267 197.658 130.23 196.207C131.193 194.756 131.647 192.632 132.428 191.572C133.21 190.512 135.018 189.305 135.443 188.099C135.675 187.424 135.398 185.951 135.075 184.699C134.774 183.566 134.446 182.296 134.055 182.404V183.107C133.584 183.628 132.287 184.143 130.819 184.2C129.873 184.245 127.578 184.058 127.584 183.333Z" fill="#263238"/>
<path d="M108.783 170.981C108.449 170.981 108.177 171.468 107.434 172.267C106.327 173.386 105.04 174.311 103.627 175.004C101.202 176.222 96.5042 178.086 94.3623 179.055C93.0307 179.656 93.093 181.265 94.47 182.183C95.8469 183.101 99.1673 183.758 103.162 182.863C105.332 182.376 108.165 180.37 109.962 180.477C111.758 180.585 115.107 180.562 116.427 179.65C117.747 178.738 117.22 176.817 116.846 175.117C116.438 173.293 115.855 170.499 115.248 170.624V171.19C114.472 172.369 110.511 172.851 108.8 171.984L108.783 170.981Z" fill="#263238"/>
<path d="M160.12 108.085C161.536 118.086 159.627 119.984 150.124 129.583C145.025 134.733 136.78 142.287 136.78 142.287C136.78 142.287 136.899 145.482 136.962 152.645C137.024 158.951 134.389 179.474 134.389 179.474C134.389 179.474 130.094 181.282 127.147 179.406C127.147 179.406 125.816 164.136 125.096 156.175C124.122 145.409 123.612 139.98 124.161 137.663C124.649 135.617 134.321 123.401 136.554 119.978L115.996 131.923C116.395 134.949 116.595 137.999 116.597 141.051C116.37 149.613 115.316 166.714 115.316 166.714C115.316 166.714 110.613 168.816 108.279 167.003C108.279 167.003 102.357 129.605 102.357 126.534C102.357 121.871 122.609 107.949 126.445 104.708C128.632 102.86 131.069 100.86 131.069 100.86L160.12 108.085Z" fill="#455A64"/>
<path d="M136.554 119.984C134.391 118.233 132.764 115.911 131.856 113.281C131.969 114.997 132.214 116.702 132.587 118.38C133.154 120.602 115.996 131.923 115.996 131.923L136.554 119.984Z" fill="#37474F"/>
<path d="M147.979 44.0357C149.136 39.0967 146.071 34.1546 141.132 32.9971C136.193 31.8395 131.251 34.905 130.093 39.8439C128.936 44.7829 132.001 49.725 136.94 50.8826C141.879 52.0401 146.821 48.9746 147.979 44.0357Z" fill="#263238"/>
<path d="M158.335 67.4857C158.335 67.4857 160.601 69.3443 160.601 75.2146V87.8901L160.278 109.207C155.745 114.142 135.347 112.272 130.298 101.506C130.298 101.506 130.338 79.0053 130.338 73.9623C130.338 68.9193 133.171 62.3747 140.877 61.9214L150.861 64.2446L158.335 67.4857Z" fill="#263238"/>
<path d="M154.912 48.4697C154.912 48.4697 153.422 55.4619 152.827 56.6121C152.43 57.3212 151.774 57.8492 150.997 58.0854L151.099 53.167L154.912 48.4697Z" fill="#263238"/>
<path d="M153.042 38.4516C153.56 38.3935 154.084 38.4535 154.574 38.6273C155.065 38.801 155.51 39.0839 155.876 39.4546C157.1 40.7068 156.414 44.6279 154.89 48.4696L152.085 48.7926L153.042 38.4516Z" fill="#263238"/>
<path d="M151.269 48.7926C151.836 49.1269 152.634 48.0503 153.326 47.3251C154.017 46.5998 156.284 45.6252 157.411 47.988C158.539 50.3509 156.414 53.6147 154.635 54.1756C151.564 55.1389 151.099 53.167 151.099 53.167L150.867 64.2446C148.22 67.2024 139.171 66.5112 140.877 63.95V60.5502C140.877 60.5502 138.095 60.9752 136.741 60.7655C134.474 60.4142 133.057 58.635 132.372 56.1872C131.273 52.2604 130.853 49.0929 131.805 41.3698C132.831 32.9043 142.673 32.8193 147.988 36.1625C153.303 39.5056 151.269 48.7926 151.269 48.7926Z" fill="#FFA8A7"/>
<path d="M143.444 50.7305H142.968C142.137 50.7305 141.34 50.4004 140.752 49.8127C140.164 49.2251 139.834 48.4281 139.834 47.597C139.834 46.766 140.164 45.969 140.752 45.3813C141.34 44.7937 142.137 44.4636 142.968 44.4636H143.449C144.28 44.4636 145.077 44.7937 145.665 45.3813C146.253 45.969 146.583 46.766 146.583 47.597C146.583 48.4281 146.253 49.2251 145.665 49.8127C145.077 50.4004 144.28 50.7305 143.449 50.7305H143.444ZM142.968 44.9905C142.276 44.9905 141.614 45.2652 141.125 45.754C140.636 46.2428 140.361 46.9058 140.361 47.597C140.361 48.2883 140.636 48.9513 141.125 49.4401C141.614 49.9289 142.276 50.2035 142.968 50.2035H143.449C144.141 50.2035 144.804 49.9289 145.292 49.4401C145.781 48.9513 146.056 48.2883 146.056 47.597C146.056 46.9058 145.781 46.2428 145.292 45.754C144.804 45.2652 144.141 44.9905 143.449 44.9905H142.968Z" fill="#263238"/>
<path d="M133.902 50.7305H133.42C132.589 50.7305 131.792 50.4004 131.204 49.8127C130.617 49.2251 130.287 48.4281 130.287 47.597C130.287 46.766 130.617 45.969 131.204 45.3813C131.792 44.7937 132.589 44.4636 133.42 44.4636H133.902C134.733 44.4636 135.53 44.7937 136.117 45.3813C136.705 45.969 137.035 46.766 137.035 47.597C137.035 48.4281 136.705 49.2251 136.117 49.8127C135.53 50.4004 134.733 50.7305 133.902 50.7305ZM133.42 44.9905C132.729 44.9905 132.066 45.2652 131.577 45.754C131.088 46.2428 130.814 46.9058 130.814 47.597C130.814 48.2883 131.088 48.9513 131.577 49.4401C132.066 49.9289 132.729 50.2035 133.42 50.2035H133.902C134.593 50.2035 135.256 49.9289 135.745 49.4401C136.234 48.9513 136.508 48.2883 136.508 47.597C136.508 46.9058 136.234 46.2428 135.745 45.754C135.256 45.2652 134.593 44.9905 133.902 44.9905H133.42Z" fill="#263238"/>
<path d="M139.868 46.9794C139.677 46.7197 139.428 46.5082 139.141 46.3617C138.854 46.2151 138.536 46.1375 138.214 46.1351C137.945 46.1081 137.674 46.1454 137.423 46.2439C137.172 46.3424 136.947 46.4994 136.769 46.7018L136.35 46.3844C136.579 46.1132 136.872 45.9025 137.202 45.7711C137.532 45.6396 137.889 45.5915 138.242 45.6308C138.651 45.6349 139.052 45.7362 139.414 45.9263C139.776 46.1165 140.087 46.3901 140.322 46.7244L139.868 46.9794Z" fill="#263238"/>
<path d="M152.952 46.9568H146.288V47.4837H152.952V46.9568Z" fill="#263238"/>
<path d="M151.269 49.7389C151.552 49.7389 152.623 47.9597 153.326 47.3251C154.295 46.4411 153.042 38.4516 153.042 38.4516C153.042 38.4516 153.977 36.4628 152.108 34.4116C150.782 32.9497 148.56 32.7853 144.77 32.1904C142.781 31.8787 139.766 31.3178 137.777 30.9495C135.409 30.5075 133.443 30.0428 131.771 31.5161C131.115 32.0849 130.651 32.8429 130.443 33.6861C130.235 34.5292 130.293 35.416 130.61 36.2248C131.089 37.2334 131.943 38.0158 132.989 38.4063C132.989 38.4063 134.021 39.3242 137.619 39.7605C141.217 40.1969 146.821 39.6812 147.586 39.5736C148.628 39.4319 148.849 40.4405 149.416 43.2057C149.909 45.6138 150.334 49.7219 151.269 49.7389Z" fill="#263238"/>
<path d="M153.037 39.0976L156.437 37.2674C156.328 37.0388 156.174 36.8347 155.984 36.6673C155.794 36.4999 155.572 36.3726 155.332 36.2932C155.091 36.2138 154.837 36.1839 154.585 36.2052C154.333 36.2266 154.088 36.2987 153.864 36.4174C153.41 36.6736 153.071 37.0942 152.917 37.5928C152.763 38.0913 152.806 38.6298 153.037 39.0976Z" fill="#263238"/>
<path d="M140.883 60.5785C140.883 60.5785 145.926 59.5643 147.682 58.6293C148.719 58.088 149.568 57.2468 150.119 56.2155C149.852 57.2429 149.382 58.2063 148.736 59.0486C147.444 60.6975 140.877 61.9101 140.877 61.9101L140.883 60.5785Z" fill="#F28F8F"/>
<path d="M142.095 47.5347C142.103 47.7337 142.169 47.9259 142.285 48.0876C142.402 48.2492 142.563 48.373 142.749 48.4435C142.936 48.5141 143.138 48.5282 143.333 48.4843C143.527 48.4403 143.704 48.3402 143.841 48.1963C143.979 48.0524 144.071 47.8712 144.107 47.6753C144.142 47.4793 144.119 47.2773 144.04 47.0944C143.962 46.9114 143.831 46.7557 143.664 46.6466C143.498 46.5375 143.303 46.4798 143.104 46.4808C142.968 46.4837 142.835 46.5133 142.711 46.5679C142.587 46.6224 142.475 46.7009 142.381 46.7988C142.287 46.8967 142.214 47.012 142.165 47.1383C142.116 47.2646 142.092 47.3993 142.095 47.5347Z" fill="#263238"/>
<path d="M143.716 43.353L145.88 44.5429C146.026 44.2482 146.055 43.9092 145.962 43.594C145.868 43.2787 145.659 43.0105 145.376 42.843C145.234 42.7646 145.078 42.7155 144.917 42.6988C144.755 42.682 144.593 42.6979 144.438 42.7455C144.283 42.7931 144.139 42.8714 144.015 42.9758C143.891 43.0802 143.789 43.2084 143.716 43.353Z" fill="#263238"/>
<path d="M141.342 54.5099L139.035 55.3769C139.085 55.5317 139.165 55.6749 139.272 55.7979C139.378 55.9209 139.508 56.0211 139.654 56.0925C139.8 56.164 139.959 56.2052 140.122 56.2136C140.284 56.2221 140.447 56.1977 140.599 56.1418C140.91 56.0187 141.161 55.7799 141.3 55.4756C141.438 55.1713 141.453 54.8251 141.342 54.5099Z" fill="#F28F8F"/>
<path d="M132.825 44.2369L134.797 42.724C134.705 42.592 134.588 42.4799 134.451 42.3945C134.315 42.3092 134.163 42.2523 134.004 42.2274C133.845 42.2025 133.683 42.2101 133.527 42.2497C133.371 42.2893 133.225 42.36 133.097 42.4577C132.832 42.6624 132.655 42.9615 132.605 43.2928C132.554 43.6242 132.633 43.9623 132.825 44.2369Z" fill="#263238"/>
<path d="M133.692 47.2457C133.7 47.4447 133.766 47.637 133.882 47.7986C133.999 47.9602 134.16 48.084 134.346 48.1545C134.532 48.2251 134.735 48.2392 134.929 48.1953C135.124 48.1513 135.301 48.0512 135.438 47.9073C135.576 47.7634 135.668 47.5822 135.704 47.3863C135.739 47.1903 135.716 46.9883 135.637 46.8054C135.559 46.6225 135.428 46.4667 135.261 46.3576C135.095 46.2485 134.9 46.1908 134.701 46.1918C134.565 46.1947 134.432 46.2243 134.308 46.2789C134.184 46.3335 134.072 46.4119 133.978 46.5098C133.884 46.6077 133.811 46.723 133.762 46.8493C133.713 46.9756 133.689 47.1103 133.692 47.2457Z" fill="#263238"/>
<path d="M138.684 46.4354L138.571 52.5607L134.95 51.7618L138.684 46.4354Z" fill="#F28F8F"/>
<path d="M132.496 97.3585V97.9251C132.496 98.2148 132.42 98.4993 132.274 98.75C132.129 99.0007 131.92 99.2087 131.669 99.353L115.934 108.419C115.683 108.564 115.399 108.64 115.109 108.64C114.82 108.64 114.536 108.564 114.285 108.419L85.4152 91.7545C85.164 91.6101 84.9553 91.4022 84.8101 91.1515C84.6648 90.9008 84.5882 90.6163 84.5879 90.3266V89.9243L115.107 107.541L132.496 97.3585Z" fill="#225ADC"/>
<path opacity="0.6" d="M132.496 97.3585V97.9251C132.496 98.2148 132.42 98.4993 132.274 98.75C132.129 99.0007 131.92 99.2087 131.669 99.353L115.934 108.419C115.683 108.564 115.399 108.64 115.109 108.64C114.82 108.64 114.536 108.564 114.285 108.419L85.4152 91.7545C85.164 91.6101 84.9553 91.4022 84.8101 91.1515C84.6648 90.9008 84.5882 90.6163 84.5879 90.3266V89.9243L115.107 107.541L132.496 97.3585Z" fill="black"/>
<path d="M84.6049 89.93L101.723 80.0479C101.873 79.9614 102.043 79.9158 102.216 79.9158C102.389 79.9158 102.559 79.9614 102.709 80.0479L132.4 97.1941C132.433 97.2137 132.46 97.2415 132.479 97.2748C132.498 97.3081 132.508 97.3457 132.508 97.384C132.508 97.4222 132.498 97.4598 132.479 97.4931C132.46 97.5264 132.433 97.5542 132.4 97.5738L115.124 107.546L84.6049 89.93Z" fill="#225ADC"/>
<path opacity="0.5" d="M84.6049 89.93L101.723 80.0479C101.873 79.9614 102.043 79.9158 102.216 79.9158C102.389 79.9158 102.559 79.9614 102.709 80.0479L132.4 97.1941C132.433 97.2137 132.46 97.2415 132.479 97.2748C132.498 97.3081 132.508 97.3457 132.508 97.384C132.508 97.4222 132.498 97.4598 132.479 97.4931C132.46 97.5264 132.433 97.5542 132.4 97.5738L115.124 107.546L84.6049 89.93Z" fill="black"/>
<path d="M115.265 106.096L124.496 100.77L97.5014 85.1873L88.22 90.4852L115.265 106.096Z" fill="#263238"/>
<path d="M119.804 91.2842L119.634 91.3805L115.107 93.9927L107.06 89.3463L106.896 89.25L111.588 86.5415L119.804 91.2842Z" fill="#263238"/>
<path d="M119.634 91.3805L115.107 93.9927L107.06 89.3463L111.588 86.7342L119.634 91.3805Z" fill="#263238"/>
<path opacity="0.7" d="M115.107 107.546V108.646C114.818 108.645 114.535 108.569 114.285 108.425L85.4152 91.7602C85.164 91.6158 84.9553 91.4078 84.8101 91.1571C84.6648 90.9065 84.5882 90.622 84.5879 90.3322V89.9299L115.107 107.546Z" fill="black"/>
<path d="M114.636 107.79C114.362 107.899 114.066 107.945 113.771 107.922C113.477 107.899 113.191 107.81 112.936 107.66L84.1969 91.0689C83.9473 90.9257 83.7325 90.7289 83.5679 90.4928C83.4033 90.2567 83.293 89.9871 83.245 89.7033L80.1002 70.9365C80.0823 70.8317 80.0729 70.7256 80.0719 70.6192C80.0685 70.0978 80.2723 69.5964 80.6385 69.2253L110.506 86.4735C110.695 86.5777 110.859 86.7228 110.985 86.8982C111.112 87.0737 111.198 87.275 111.237 87.4878L114.636 107.79Z" fill="#225ADC"/>
<path opacity="0.5" d="M114.636 107.79C114.362 107.899 114.066 107.945 113.771 107.922C113.477 107.899 113.191 107.81 112.936 107.66L84.1969 91.0689C83.9473 90.9257 83.7325 90.7289 83.5679 90.4928C83.4033 90.2567 83.293 89.9871 83.245 89.7033L80.1002 70.9365C80.0823 70.8317 80.0729 70.7256 80.0719 70.6192C80.0685 70.0978 80.2723 69.5964 80.6385 69.2253L110.506 86.4735C110.695 86.5777 110.859 86.7228 110.985 86.8982C111.112 87.0737 111.198 87.275 111.237 87.4878L114.636 107.79Z" fill="black"/>
<path d="M115.107 107.546L114.914 107.66C114.827 107.71 114.736 107.754 114.642 107.79L111.242 87.4878C111.206 87.2776 111.125 87.0778 111.004 86.9026C110.882 86.7273 110.724 86.5808 110.54 86.4735L80.6725 69.2253C80.7912 69.1084 80.9245 69.0075 81.0692 68.925L110.999 86.2015C111.183 86.3089 111.341 86.4553 111.463 86.6306C111.584 86.8058 111.665 87.0056 111.701 87.2158L115.107 107.546Z" fill="#E0E0E0"/>
<path d="M98.4533 90.4683C98.2437 89.216 96.9461 87.5444 95.5579 86.7455C94.1696 85.9465 93.212 86.3092 93.4273 87.5671C93.6427 88.825 94.9346 90.4909 96.3228 91.2955C97.7111 92.1001 98.6687 91.7262 98.4533 90.4683Z" fill="#225ADC"/>
<path d="M104.341 102.685C104.281 101.872 104.123 101.069 103.87 100.294C103.428 98.9054 102.114 93.5564 99.1107 92.7518C98.7535 92.6444 98.3745 92.6327 98.0114 92.7178C97.1784 92.9444 96.7988 93.8114 96.6345 94.5876C96.4815 95.7347 96.4815 96.897 96.6345 98.0441C96.1728 97.516 95.6318 97.063 95.0309 96.7012C94.4981 96.3 93.8558 96.0707 93.1894 96.0439C93.0967 96.0393 93.0043 96.0576 92.9203 96.0971C92.8363 96.1366 92.7633 96.1962 92.7077 96.2705C92.6001 96.4688 92.7077 96.7182 92.8777 96.8938C93.178 97.2565 93.5463 97.5624 93.8467 97.9251C94.082 98.2414 94.2996 98.5705 94.4983 98.911C94.8779 99.523 95.3029 100.101 95.7279 100.685C96.5444 101.897 97.5687 102.956 98.7537 103.812C100.117 104.735 101.663 105.351 103.287 105.62C105.48 105.892 107.61 105.858 108.993 105.376L104.341 102.685Z" fill="#FFA8A7"/>
<path d="M157.734 67.6501C155.711 66.6075 152.753 70.7382 153.694 75.0559C154.635 79.3736 159.27 94.5537 159.27 94.5537C159.27 94.5537 138.333 96.4235 136.554 96.6445C135.313 96.7918 133.924 96.1629 132.774 95.7832C131.21 95.2619 129.629 94.8993 128.088 94.3327C127.82 94.2095 127.528 94.1476 127.232 94.1514C127.084 94.1578 126.942 94.2129 126.829 94.3081C126.715 94.4034 126.636 94.5335 126.604 94.6783C126.596 94.8556 126.641 95.0311 126.734 95.1826C127.228 96.1909 127.971 97.0568 128.893 97.6985C129.339 97.9622 129.764 98.2616 130.162 98.5937C130.406 98.8374 130.944 99.5117 130.729 99.88L122.41 104.668C122.41 104.668 124.326 106.334 131.261 104.39C133.761 103.736 136.201 102.87 138.554 101.801C138.554 101.801 163.225 102.826 167.684 101.478C169.259 100.996 169.826 99.88 168.761 94.803C167.543 88.9214 164.046 78.1951 163.253 75.3619C161.514 69.2253 161.1 69.367 157.734 67.6501Z" fill="#FFA8A7"/>
<path d="M156.692 66.7718C156.692 66.7718 160.035 67.7124 161.474 69.6049C162.913 71.4975 168.466 89.8053 168.466 89.8053C167.015 91.016 165.317 91.8966 163.491 92.3858C161.666 92.875 159.755 92.9612 157.893 92.6384C157.893 92.6384 153.428 79.9743 152.952 76.5915C152.108 71.3502 154.669 67.2251 156.692 66.7718Z" fill="#225ADC"/>
<path d="M138.65 79.0563C138.378 77.6397 139.262 76.8748 140.628 77.3564C141.35 77.6534 141.993 78.1156 142.505 78.706C143.017 79.2965 143.383 79.9986 143.574 80.7562C143.846 82.1898 138.916 80.4616 138.65 79.0563Z" fill="#225ADC"/>
<path d="M147.994 83.4704L143.976 80.9149C144.18 82.0028 142.713 81.8498 141.393 81.3908C140.072 80.9319 138.457 80.0026 138.248 78.9147L134.746 78.8693C134.423 78.8693 134.417 79.2886 134.746 79.6343C135.613 80.6032 137.63 82.3201 141.869 83.799C146.107 85.2779 147.733 84.819 148.345 84.3656C148.543 84.1957 148.362 83.7027 147.994 83.4704Z" fill="#225ADC"/>
</svg>
