<svg width="106" height="84" viewBox="0 0 106 84" fill="none" xmlns="http://www.w3.org/2000/svg">
<path d="M101.75 8.25H83V1.6875C83 1.17188 82.5781 0.75 82.0625 0.75H75.5C74.9844 0.75 74.5625 1.17188 74.5625 1.6875V8.25H57.2188V1.6875C57.2188 1.17188 56.7969 0.75 56.2812 0.75H49.7188C49.2031 0.75 48.7812 1.17188 48.7812 1.6875V8.25H31.4375V1.6875C31.4375 1.17188 31.0156 0.75 30.5 0.75H23.9375C23.4219 0.75 23 1.17188 23 1.6875V8.25H4.25C2.17578 8.25 0.5 9.92578 0.5 12V79.5C0.5 81.5742 2.17578 83.25 4.25 83.25H101.75C103.824 83.25 105.5 81.5742 105.5 79.5V12C105.5 9.92578 103.824 8.25 101.75 8.25ZM97.0625 74.8125H8.9375V16.6875H23V23.25C23 23.7656 23.4219 24.1875 23.9375 24.1875H30.5C31.0156 24.1875 31.4375 23.7656 31.4375 23.25V16.6875H48.7812V23.25C48.7812 23.7656 49.2031 24.1875 49.7188 24.1875H56.2812C56.7969 24.1875 57.2188 23.7656 57.2188 23.25V16.6875H74.5625V23.25C74.5625 23.7656 74.9844 24.1875 75.5 24.1875H82.0625C82.5781 24.1875 83 23.7656 83 23.25V16.6875H97.0625V74.8125ZM41.75 40.125H20.1875C19.6719 40.125 19.25 40.5469 19.25 41.0625V46.6875C19.25 47.2031 19.6719 47.625 20.1875 47.625H41.75C42.2656 47.625 42.6875 47.2031 42.6875 46.6875V41.0625C42.6875 40.5469 42.2656 40.125 41.75 40.125ZM41.75 56.0625H20.1875C19.6719 56.0625 19.25 56.4844 19.25 57V62.625C19.25 63.1406 19.6719 63.5625 20.1875 63.5625H41.75C42.2656 63.5625 42.6875 63.1406 42.6875 62.625V57C42.6875 56.4844 42.2656 56.0625 41.75 56.0625ZM77.8672 35.2734L65.7266 52.1133L59.5391 43.5469C59.1875 43.0547 58.625 42.7734 58.0273 42.7734H51.5938C50.832 42.7734 50.3867 43.6406 50.832 44.2617L64.2031 62.8008C64.3757 63.0404 64.6028 63.2355 64.8657 63.37C65.1285 63.5046 65.4196 63.5748 65.7148 63.5748C66.0101 63.5748 66.3012 63.5046 66.564 63.37C66.8269 63.2355 67.0539 63.0404 67.2266 62.8008L86.5625 36C87.0078 35.3789 86.5625 34.5117 85.8008 34.5117H79.3672C78.7812 34.5 78.2188 34.793 77.8672 35.2734Z" fill="black"/>
</svg>
