<svg width="100" height="100" viewBox="0 0 100 100" fill="none" xmlns="http://www.w3.org/2000/svg">
<path d="M60 50H67.5V64.1L79.7 71.15L75.95 77.65L60 68.45V50ZM10 0H80C82.6522 0 85.1957 1.05357 87.0711 2.92893C88.9464 4.8043 90 7.34784 90 10V40.5C96.2 46.8 100 55.45 100 65C100 74.2826 96.3125 83.185 89.7487 89.7487C83.185 96.3125 74.2826 100 65 100C55.45 100 46.8 96.2 40.5 90H10C7.34784 90 4.8043 88.9464 2.92893 87.0711C1.05357 85.1957 0 82.6522 0 80V10C0 7.34784 1.05357 4.8043 2.92893 2.92893C4.8043 1.05357 7.34784 0 10 0ZM10 65V80H33.35C31.2 75.45 30 70.35 30 65H10ZM10 30H40V15H10V30ZM80 30V15H50V30H80ZM10 55H31.45C33.15 49.25 36.3 44.1 40.5 40H10V55ZM65 40.75C58.5685 40.75 52.4004 43.3049 47.8527 47.8527C43.3049 52.4004 40.75 58.5685 40.75 65C40.75 78.4 51.6 89.25 65 89.25C68.1846 89.25 71.3379 88.6228 74.2801 87.4041C77.2222 86.1854 79.8955 84.3992 82.1473 82.1473C84.3992 79.8955 86.1854 77.2222 87.4041 74.2801C88.6228 71.3379 89.25 68.1846 89.25 65C89.25 51.6 78.4 40.75 65 40.75Z" fill="#333333"/>
</svg>
